<svg width="24" height="24" viewBox="0 0 24 24" fill="none" xmlns="http://www.w3.org/2000/svg">
<path d="M8.6313 0.884258C9.6594 0.304573 10.8197 0 12 0C13.1803 0 14.3406 0.304573 15.3687 0.884258C17.5927 2.34072 19.7291 3.92675 21.7668 5.63412C23.439 7.08816 24.3842 9.99624 23.851 12.1773C23.1831 14.7828 22.3659 17.3478 21.4033 19.8595C20.9109 20.9379 20.1518 21.8732 19.1978 22.577C18.2437 23.2808 17.1261 23.7301 15.9503 23.8823C13.3191 24.0392 10.6809 24.0392 8.04965 23.8823C5.86848 23.7369 3.42072 21.9194 2.59672 19.8595C1.63415 17.3478 0.816881 14.7828 0.148959 12.1773C-0.384217 9.99624 0.560958 7.08816 2.23319 5.63412C4.26307 3.92752 6.39135 2.34151 8.60706 0.884258H8.6313Z" fill="#363CCC"/>
</svg>
