<svg width="821" height="852" viewBox="0 0 821 852" fill="none" xmlns="http://www.w3.org/2000/svg">
<path d="M819.035 1.6543C808.368 14.6543 779.635 73.4543 750.035 116.654C713.035 170.654 657.035 277.654 641.035 303.654C625.035 329.654 602.035 394.654 631.035 478.654C660.035 562.654 675 594.654 698 631.654C721 668.654 799.035 828.654 819.035 850.654M750.035 1.6543C732.368 13.6543 683.835 76.8543 631.035 177.654C565.034 303.654 506 425.654 641.035 672.654C679.906 743.757 698 774.654 750.035 850.654M665.035 1.6543C649.701 36.321 606 100.654 594 116.654C579 136.654 487.035 274.654 494.035 409.654C501.035 544.654 533.567 590.173 584 692.654C617.493 760.715 675.666 818.988 698 850.654M584 1.6543C531.666 74.9876 416.434 273.654 438.034 425.654C465.034 615.654 521.035 709.654 537.035 741.654C549.835 767.254 599.035 842.321 604.035 850.654M522 1.6543C491 63.321 408.235 206.854 397.035 255.654C383.035 316.654 369.035 384.654 374.035 425.654C379.035 466.654 379.034 560.654 450.034 692.654C506.834 798.254 535.701 841.988 543.034 850.654M479.035 1.6543C463.702 36.321 420 92.6543 408 108.654C393 128.654 301.035 266.654 308.035 401.654C315.035 536.654 347.567 582.173 398 684.654C431.494 752.715 471.701 818.988 494.035 850.654M398 1.6543C345.667 74.9876 230.435 265.654 252.035 417.654C279.035 607.654 335.035 701.654 351.035 733.654C363.835 759.254 413.035 842.321 418.035 850.654M336 1.6543C305 63.321 222.235 198.854 211.035 247.654C197.035 308.654 183.035 376.654 188.035 417.654C193.035 458.654 193.035 552.654 264.035 684.654C320.835 790.254 349.701 841.988 357.035 850.654M294.035 1.6543C278.702 36.321 235 92.6543 223 108.654C208 128.654 116.035 266.654 123.035 401.654C130.035 536.654 162.567 582.173 213 684.654C246.494 752.715 286.701 818.988 309.035 850.654M213 1.6543C160.667 74.9876 45.4348 265.654 67.0348 417.654C94.0348 607.654 150.035 701.654 166.035 733.654C178.835 759.254 228.035 842.321 233.035 850.654M151 1.6543C120 63.321 37.2351 198.854 26.0351 247.654C12.0351 308.654 -1.96494 376.654 3.03506 417.654C8.03506 458.654 8.03467 552.654 79.0347 684.654C135.835 790.254 164.701 841.988 172.035 850.654" stroke="#FDE4DF" stroke-width="4"/>
</svg>
