<svg width="821" height="852" viewBox="0 0 821 852" fill="none" xmlns="http://www.w3.org/2000/svg">
<path d="M1.54553 1.6543C12.2122 14.6543 40.9455 73.4543 70.5455 116.654C107.546 170.654 163.546 277.654 179.546 303.654C195.546 329.654 218.546 394.654 189.546 478.654C160.546 562.654 145.58 594.654 122.58 631.654C99.5804 668.654 21.5455 828.654 1.54553 850.654M70.5455 1.6543C88.2121 13.6543 136.745 76.8543 189.546 177.654C255.546 303.654 314.58 425.654 179.546 672.654C140.674 743.757 122.58 774.654 70.5455 850.654M155.545 1.6543C170.879 36.321 214.58 100.654 226.58 116.654C241.58 136.654 333.545 274.654 326.545 409.654C319.545 544.654 287.013 590.173 236.58 692.654C203.087 760.715 144.914 818.988 122.58 850.654M236.58 1.6543C288.914 74.9876 404.146 273.654 382.546 425.654C355.546 615.654 299.545 709.654 283.545 741.654C270.745 767.254 221.545 842.321 216.545 850.654M298.58 1.6543C329.58 63.321 412.345 206.854 423.545 255.654C437.545 316.654 451.545 384.654 446.545 425.654C441.545 466.654 441.546 560.654 370.546 692.654C313.746 798.254 284.879 841.988 277.546 850.654M341.545 1.6543C356.878 36.321 400.58 92.6543 412.58 108.654C427.58 128.654 519.545 266.654 512.545 401.654C505.545 536.654 473.013 582.173 422.58 684.654C389.086 752.715 348.879 818.988 326.545 850.654M422.58 1.6543C474.913 74.9876 590.145 265.654 568.545 417.654C541.545 607.654 485.545 701.654 469.545 733.654C456.745 759.254 407.545 842.321 402.545 850.654M484.58 1.6543C515.58 63.321 598.345 198.854 609.545 247.654C623.545 308.654 637.545 376.654 632.545 417.654C627.545 458.654 627.545 552.654 556.545 684.654C499.745 790.254 470.879 841.988 463.545 850.654M526.545 1.6543C541.878 36.321 585.58 92.6543 597.58 108.654C612.58 128.654 704.545 266.654 697.545 401.654C690.545 536.654 658.013 582.173 607.58 684.654C574.086 752.715 533.879 818.988 511.545 850.654M607.58 1.6543C659.913 74.9876 775.145 265.654 753.545 417.654C726.545 607.654 670.545 701.654 654.545 733.654C641.745 759.254 592.545 842.321 587.545 850.654M669.58 1.6543C700.58 63.321 783.345 198.854 794.545 247.654C808.545 308.654 822.545 376.654 817.545 417.654C812.545 458.654 812.545 552.654 741.545 684.654C684.745 790.254 655.879 841.988 648.545 850.654" stroke="#FDE4DF" stroke-width="4"/>
</svg>
