<svg width="30" height="56" viewBox="0 0 30 56" fill="none" xmlns="http://www.w3.org/2000/svg">
<path d="M14.7842 11.5513C18.3054 11.5448 21.7176 12.4383 24.5064 14.6623C27.5494 17.1199 29.491 20.6836 29.9046 24.5704C30.3404 28.5058 29.2793 32.3029 26.7943 35.4013C24.2458 38.5789 20.3457 40.5145 16.3219 40.9517C15.2044 39.2286 14.1941 37.4385 13.2967 35.5915C15.3274 35.7146 17.3616 35.4617 19.1882 34.5205C21.3473 33.4081 23.0664 31.4586 23.8034 29.134C24.5499 26.7795 24.3835 24.0864 23.2402 21.887C22.1085 19.7101 20.1169 18.1388 17.7847 17.4106C15.4216 16.6768 12.8628 16.9189 10.6798 18.083C8.37115 19.3031 6.76634 21.3067 6.00475 23.7892C5.87474 24.2542 5.78188 24.7287 5.72694 25.2083C5.59016 26.457 5.73845 27.7108 5.88343 28.9516C6.47928 34.0519 8.86257 39.0456 11.7243 43.2585C12.6349 44.5989 13.6478 45.8667 14.6303 47.1545C15.8283 48.7488 17.0537 50.3223 18.3058 51.8746C17.3214 53.0085 16.0979 54.438 14.9847 55.4176C14.9186 55.3599 14.8532 55.3016 14.7884 55.2424C12.9375 53.5508 11.2394 51.6238 9.67938 49.6638C5.20876 44.047 1.64203 37.6421 0.431885 30.4997C0.23981 29.366 0.0656699 28.2452 0.0152502 27.0947C-0.15677 23.1696 1.12773 19.3342 3.80549 16.4281C6.78561 13.1938 10.4331 11.7261 14.7842 11.5513Z" fill="#363CCC"/>
<path d="M14.6178 21.483C17.1432 21.2662 19.3685 23.1304 19.5945 25.6522C19.8205 28.1738 17.9622 30.4032 15.4385 30.6381C12.9018 30.8741 10.656 29.0064 10.4288 26.4719C10.2015 23.9373 12.0795 21.7007 14.6178 21.483Z" fill="#363CCC"/>
<path d="M18.2267 55.3453C17.0495 56.4342 15.6139 55.945 15.0137 55.4511L15.1902 52.6292L18.1561 51.8532C18.1561 51.4651 20.1333 53.5816 18.2267 55.3453Z" fill="#363CCC"/>
<path d="M17.2751 0.0170164C16.8485 0.00656109 16.4219 0.000888909 15.9952 0C13.9382 2.59867 12.8014 5.79634 12.542 9.07853C14.3031 8.93708 15.5303 8.97892 17.2692 9.10026C17.3212 8.50836 17.4679 7.92733 17.6201 7.35461C17.8898 6.53795 18.2212 5.74301 18.6114 4.97654C19.4435 4.81289 20.3639 5.03386 21.1677 5.25168C21.9161 3.78994 22.7893 2.5151 23.8838 1.29039C21.7794 0.438345 19.5334 0.0866546 17.2751 0.0170164Z" fill="#363CCC"/>
</svg>
