<svg preserveAspectRatio="none" width="100%" height="100%" overflow="visible" style="display: block;" viewBox="0 0 1680 739" fill="none" xmlns="http://www.w3.org/2000/svg">
<g id="Mask group">
<mask id="mask0_2176_3829" style="mask-type:alpha" maskUnits="userSpaceOnUse" x="0" y="0" width="1680" height="739">
<path id="background" d="M0 0L835 76.9792L1680 0V739H0V0Z" fill="var(--fill-0, #0016F2)"/>
</mask>
<g mask="url(#mask0_2176_3829)">
<path id="Vector 147" d="M409.035 -44C398.368 -31 369.635 27.8 340.035 71C303.035 125 247.035 232 231.035 258C215.035 284 192.035 349 221.035 433C250.035 517 265 549 288 586C311 623 389.035 783 409.035 805M340.035 -44C322.368 -32 273.835 31.2 221.035 132C155.034 258 95.9996 380 231.035 627C269.906 698.102 288 729 340.035 805M255.035 -44C239.701 -9.33333 196 55 184 71C169 91 77.0346 229 84.0346 364C91.0346 499 123.567 544.519 174 647C207.493 715.061 265.666 773.333 288 805M174 -44C121.666 29.3333 6.43439 228 28.0344 380C55.0344 570 111.035 664 127.035 696C139.835 721.6 189.035 796.667 194.035 805M112 -44C80.9996 17.6667 -1.7653 161.2 -12.9653 210C-26.9653 271 -40.9653 339 -35.9653 380C-30.9653 421 -30.9657 515 40.0343 647C96.8343 752.6 125.701 796.333 133.034 805M69.035 -44C53.7017 -9.33333 10 47 -2 63C-17 83 -108.965 221 -101.965 356C-94.965 491 -62.4326 536.519 -12 639C21.4938 707.061 61.7013 773.333 84.0346 805M-12 -44C-64.3333 29.3333 -179.565 220 -157.965 372C-130.965 562 -74.9649 656 -58.9649 688C-46.1649 713.6 3.0351 796.667 8.035 805M-74 -44C-105 17.6667 -187.765 153.2 -198.965 202C-212.965 263 -226.965 331 -221.965 372C-216.965 413 -216.965 507 -145.965 639C-89.1653 744.6 -60.2987 796.333 -52.9653 805M-115.965 -44C-131.298 -9.33333 -175 47 -187 63C-202 83 -293.965 221 -286.965 356C-279.965 491 -247.433 536.519 -197 639C-163.506 707.061 -123.299 773.333 -100.965 805M-197 -44C-249.333 29.3333 -364.565 220 -342.965 372C-315.965 562 -259.965 656 -243.965 688C-231.165 713.6 -181.965 796.667 -176.965 805M-259 -44C-290 17.6667 -372.765 153.2 -383.965 202C-397.965 263 -411.965 331 -406.965 372C-401.965 413 -401.965 507 -330.965 639C-274.165 744.6 -245.299 796.333 -237.965 805" stroke="var(--stroke-0, #FDE4DF)" stroke-width="4"/>
<path id="Vector 148" d="M1271 -44C1281.67 -31 1310.4 27.8 1340 71C1377 125 1433 232 1449 258C1465 284 1488 349 1459 433C1430 517 1415.04 549 1392.04 586C1369.04 623 1291 783 1271 805M1340 -44C1357.67 -32 1406.2 31.2 1459 132C1525 258 1584.04 380 1449 627C1410.13 698.102 1392.04 729 1340 805M1425 -44C1440.33 -9.33333 1484.04 55 1496.04 71C1511.04 91 1603 229 1596 364C1589 499 1556.47 544.519 1506.04 647C1472.54 715.061 1414.37 773.333 1392.04 805M1506.04 -44C1558.37 29.3333 1673.6 228 1652 380C1625 570 1569 664 1553 696C1540.2 721.6 1491 796.667 1486 805M1568.04 -44C1599.04 17.6667 1681.8 161.2 1693 210C1707 271 1721 339 1716 380C1711 421 1711 515 1640 647C1583.2 752.6 1554.33 796.333 1547 805M1611 -44C1626.33 -9.33333 1670.03 47 1682.03 63C1697.03 83 1789 221 1782 356C1775 491 1742.47 536.519 1692.03 639C1658.54 707.061 1618.33 773.333 1596 805M1692.03 -44C1744.37 29.3333 1859.6 220 1838 372C1811 562 1755 656 1739 688C1726.2 713.6 1677 796.667 1672 805M1754.03 -44C1785.03 17.6667 1867.8 153.2 1879 202C1893 263 1907 331 1902 372C1897 413 1897 507 1826 639C1769.2 744.6 1740.33 796.333 1733 805M1796 -44C1811.33 -9.33333 1855.03 47 1867.03 63C1882.03 83 1974 221 1967 356C1960 491 1927.47 536.519 1877.03 639C1843.54 707.061 1803.33 773.333 1781 805M1877.03 -44C1929.37 29.3333 2044.6 220 2023 372C1996 562 1940 656 1924 688C1911.2 713.6 1862 796.667 1857 805M1939.03 -44C1970.03 17.6667 2052.8 153.2 2064 202C2078 263 2092 331 2087 372C2082 413 2082 507 2011 639C1954.2 744.6 1925.33 796.333 1918 805" stroke="var(--stroke-0, #FDE4DF)" stroke-width="4"/>
</g>
</g>
</svg>
