<svg width="88" height="88" viewBox="0 0 88 88" fill="none" xmlns="http://www.w3.org/2000/svg">
<circle cx="44" cy="44" r="44" fill="#A6ADFD"/>
<path d="M43.9799 13.8662L48.5991 13.8592C49.2052 13.8589 51.173 13.7485 51.6105 14.1042C51.8753 14.6133 51.7787 15.8808 51.769 16.524C52.5637 16.5065 57.2461 16.4006 57.6383 16.6115C57.8012 16.6992 57.9427 16.8853 57.9675 17.0789C57.9939 17.2798 57.9088 17.4903 57.7718 17.6281C57.678 17.7226 57.5635 17.7691 57.4376 17.7914C56.857 17.8942 56.1775 17.8286 55.5884 17.8276C54.3153 17.8286 53.0422 17.8223 51.7694 17.8085L51.769 27.104L60.5172 27.103C60.0887 26.4653 57.6593 23.0164 57.5608 22.4572C57.7318 21.8193 60.0036 18.6002 60.5244 17.8351C60.1002 17.8433 59.5638 17.9093 59.3593 17.4112C59.1792 16.9019 59.6092 16.5066 60.0456 16.5087C61.6171 16.5161 63.385 16.233 61.6937 18.4728C61.5564 18.6549 61.321 19.0137 61.1772 19.2266L58.9976 22.4707C59.5485 23.2554 62.258 27.1669 62.3999 27.7933C62.2958 28.4601 61.7639 28.4269 61.2619 28.431L54.2501 28.4309C53.1407 28.43 51.9492 28.4658 50.8493 28.3686C50.2468 28.3153 50.4246 26.2458 50.4315 25.7658C48.711 25.8363 46.4049 25.7824 44.6681 25.7665L44.6688 33.1031C45.3668 33.2828 45.9902 33.5104 46.5626 33.9817C46.9292 34.2836 47.1813 34.618 47.4289 35.0308C48.1376 36.2123 55.4187 50.0041 55.4209 50.2873C55.4229 50.5085 55.3305 50.7153 55.1604 50.8476C54.9986 50.9731 54.7602 51.0198 54.5679 50.9523C54.3981 50.8931 54.2978 50.8021 54.1948 50.6509C53.7209 49.9545 53.3535 49.1162 52.9583 48.3638L50.5973 43.8864C49.2196 44.6277 48.452 44.1803 47.3039 43.3946C46.3713 42.7564 45.5975 43.83 44.7254 44.1192L44.6494 44.1436C44.6515 45.7735 44.6704 47.4131 44.6536 49.0448C44.64 49.9053 44.415 50.6678 43.8395 51.2867C42.6156 52.6237 40.9916 52.1144 39.4575 52.3048C38.6134 52.4094 37.9632 53.0973 38.0279 54.0198C38.1569 55.8577 40.0087 55.6605 41.2694 55.6571L45.2482 55.6419C45.9991 55.6389 47.3914 55.5839 48.0632 55.7557C48.6334 55.8971 49.1544 56.2039 49.5669 56.6414C50.0894 57.2129 50.3673 57.9837 50.3363 58.7762C50.3095 59.4132 50.085 60.0233 49.697 60.5132C48.107 62.5449 46.3056 60.9773 45.1132 62.226C44.9285 62.4175 44.7974 62.6586 44.7341 62.9233C44.6109 63.4556 44.6555 64.8465 44.6578 65.4854L44.659 68.8491C45.4677 68.8362 46.3068 68.8487 47.118 68.8491L53.3535 57.0316L55.0024 53.9015C56.0657 51.8866 56.7627 50.1703 59.2505 49.9934C62.4835 49.7636 63.4452 52.7537 64.755 55.2396L67.743 60.917L70.6459 66.4299C71.1247 67.3377 71.6065 68.239 72.0849 69.1517C72.3791 69.7125 71.946 70.2357 71.3852 70.1478C71.1926 70.1216 71.0575 69.9669 70.956 69.8076C70.6417 69.3147 70.3861 68.7884 70.1152 68.2674C69.7196 67.5064 69.3224 66.7458 68.9218 65.9874L64.4005 57.4135C63.8645 56.4333 62.1023 52.8326 61.5118 52.1853C60.9963 51.6113 60.2757 51.2909 59.5248 51.3015C58.8076 51.306 58.0965 51.5802 57.5803 52.111C56.9443 52.7647 55.4286 55.9419 54.9071 56.9319L49.7348 66.756C49.2913 67.5974 48.4941 69.4091 47.9024 70.0124C47.7776 70.1394 47.5047 70.1534 47.3409 70.1656C46.235 70.2486 45.0657 70.166 43.9556 70.1588C42.8821 70.1523 41.7989 70.2149 40.7272 70.1773C40.5441 70.1709 40.2907 70.1572 40.1277 70.0564C39.7478 69.8217 33.3703 57.4677 32.6962 56.1887C32.1155 55.0872 31.249 53.0597 30.4728 52.1994C29.9487 51.6135 29.2167 51.2833 28.452 51.2875C27.7057 51.2977 26.9938 51.6189 26.4722 52.1804C26.0702 52.6131 24.341 56.015 23.977 56.7055L18.4864 67.1246C18.0191 68.0119 17.4621 69.1809 16.9024 70.0071C16.6132 70.434 15.5788 69.998 15.8722 69.3067C16.2122 68.5055 16.6627 67.7199 17.0726 66.9426L19.9559 61.4771L23.3553 55.0117C23.6972 54.3633 24.0576 53.7032 24.3842 53.0514C24.9253 51.9722 25.4033 51.1176 26.4392 50.5005C28.0508 49.5403 30.3476 49.9033 31.5586 51.3944C32.0803 52.0371 32.55 53.0419 32.9472 53.7957L34.6612 57.0547L40.872 68.8426C41.6754 68.8267 42.5217 68.8415 43.3285 68.8422L43.32 65.1248C43.3158 62.7295 43.329 60.5523 46.435 60.3547C47.4949 60.2872 48.9146 60.3054 49.0028 58.8456C49.1422 56.5391 46.5152 56.9376 45.1473 56.9429L40.3136 56.9592C39.2123 56.9592 38.2217 56.8189 37.4448 55.9422C36.0957 54.2583 36.6227 51.9499 38.6052 51.1528C39.9255 50.6218 41.9064 51.3512 42.8588 50.3844C43.0496 50.1931 43.1836 49.9477 43.2444 49.6779C43.3819 49.0731 43.3204 45.0017 43.3186 44.156C42.5875 43.8684 42.5169 43.6838 41.8862 43.3301C40.942 42.8007 40.2193 43.883 39.3849 44.1334C38.6498 44.354 38.0413 44.2367 37.3728 43.8694C36.8983 44.7776 33.9683 50.6552 33.5151 50.9007C33.3435 50.994 33.0793 50.986 32.9094 50.8867C32.7276 50.7801 32.6023 50.6028 32.5758 50.3831C32.5579 50.236 32.6 50.1294 32.6599 50.0029C33.177 48.9111 33.7789 47.8491 34.341 46.782L37.4708 40.8429L39.4821 37.0287C40.4978 35.1032 41.0416 33.5211 43.3304 33.1137L43.3325 20.6185C43.3339 18.6984 43.3124 16.7781 43.3259 14.8584C43.3302 14.2545 43.384 13.9972 43.9799 13.8662ZM44.4985 42.7988C45.2778 42.248 45.8122 41.7732 46.8603 41.838C47.754 41.8932 49.1287 43.2896 49.85 42.8075C49.9967 42.4245 49.4212 41.6037 49.2121 41.2155L47.9855 38.9054C47.386 37.7718 46.8037 36.5692 46.1632 35.474C45.614 34.5347 44.3782 34.2987 43.4206 34.4055C43.0035 34.5436 42.2866 34.8157 42.0222 35.2307C40.5639 37.5201 39.4222 40.0995 38.0978 42.4868C38.0737 42.5303 38.0548 42.5929 38.0416 42.6256C38.5112 43.5525 40.3305 41.8088 41.2906 41.8146C42.7289 41.8232 43.2709 43.226 44.4985 42.7988ZM44.6672 24.462C46.3555 24.4466 48.7476 24.3845 50.4102 24.4613C50.4729 23.6085 50.4324 22.1878 50.432 21.3047L50.4313 15.1891C48.5772 15.1892 46.503 15.24 44.668 15.1839C44.6684 18.2609 44.6976 21.3894 44.6672 24.462Z" fill="white" stroke="white" stroke-width="0.7"/>
</svg>
