<svg width="88" height="88" viewBox="0 0 88 88" fill="none" xmlns="http://www.w3.org/2000/svg">
<circle cx="44" cy="44" r="44" fill="#A6ADFD"/>
<path d="M31.5121 38.8169C31.5824 38.8109 31.6528 38.8053 31.7232 38.8009C33.6187 38.6726 34.4764 39.9488 35.7296 41.1691C36.785 42.1962 37.7978 43.2909 38.8693 44.298C39.3089 43.2389 39.9637 42.4682 40.9996 42.041C41.9799 41.6411 43.0704 41.6698 44.0305 42.121C47.0777 43.5517 46.8351 47.9156 43.6107 49.0411C45.128 50.5494 46.6528 52.0552 48.1538 53.5774C48.8633 54.2938 49.3501 55.2837 49.1842 56.3448C48.9667 57.741 47.6562 58.7761 46.7208 59.708C45.6981 60.7323 44.6699 61.7502 43.6364 62.7621C44.6123 63.2133 45.3672 63.7204 45.863 64.7811C46.2433 65.6118 46.2999 66.5669 46.0207 67.4412C45.7077 68.4135 45.0012 69.2219 44.1284 69.6654C43.1769 70.1474 42.0822 70.205 41.0901 69.8258C39.9812 69.4006 39.3574 68.6027 38.8785 67.5128L35.3884 71.0013C34.3931 72.0048 33.56 73.0591 32.0562 73.0751C30.4512 73.0927 29.6064 71.958 28.5337 70.8889L25.594 67.9536C22.4008 64.7643 19.1993 61.579 16.0128 58.3802C15.2736 57.6974 14.8232 56.9247 14.8322 55.8508C14.8454 54.2722 16.2629 53.1791 17.2706 52.178C18.3138 51.1521 19.3495 50.1178 20.3776 49.0747C19.4085 48.6036 18.6644 48.1252 18.1647 47.0625C17.7706 46.2274 17.7124 45.2595 18.0031 44.378C18.3277 43.3949 19.0365 42.6058 19.9215 42.161C20.8737 41.6858 21.9665 41.6342 22.9552 42.0174C24.0519 42.4506 24.6779 43.2377 25.1499 44.326C25.8573 43.5325 26.8044 42.6305 27.5835 41.8778C28.8052 40.6975 29.8599 39.1949 31.5121 38.8169ZM36.2024 67.8948C36.9089 67.1865 38.4822 65.4367 39.1926 64.9739C39.3163 64.8931 39.4522 64.8631 39.5966 64.8611C39.7631 64.8591 39.9289 64.9091 40.0533 65.0307C40.7465 65.7102 39.7107 68.2128 42.2373 68.4311C42.8549 68.4843 43.4349 68.3104 43.9038 67.8736C44.303 67.5016 44.565 66.9893 44.5852 66.4222C44.6042 65.8422 44.3979 65.2795 44.0143 64.8643C43.6881 64.5055 43.1968 64.2064 42.716 64.196C42.2385 64.1856 41.6395 64.4036 41.251 64.0136C41.1058 63.8676 41.0072 63.6704 41.0077 63.4545C41.01 62.4758 47.2117 57.5866 47.5694 56.2136C47.6911 55.7468 47.4225 55.2497 47.1549 54.8993C46.7002 54.3038 46.0889 53.781 45.561 53.2571L42.5122 50.2322C42.1932 49.9158 41.3314 49.1487 41.1416 48.8099C40.3862 47.4613 42.2932 47.6308 42.7555 47.5809C45.1848 47.3193 45.1524 43.728 42.7078 43.3897C42.1059 43.3053 41.4974 43.4837 41.0228 43.8836C40.6711 44.184 40.3523 44.6643 40.3115 45.1515C40.2672 45.679 40.5174 46.3718 40.0627 46.7605C39.9013 46.8985 39.691 46.9509 39.4868 46.9189C38.4822 46.7609 34.0604 41.2451 32.5763 40.5064C32.3009 40.3696 32.0012 40.3584 31.7032 40.3936C30.9177 40.632 29.9809 41.737 29.3648 42.3554L26.1776 45.5591C25.7161 46.023 24.6385 47.3213 24.0835 46.8429C23.0038 45.913 24.4382 44.7871 22.7195 43.6888C22.2072 43.3621 21.5913 43.2681 21.0126 43.4293C19.8322 43.7544 19.1892 44.9207 19.5565 46.1774C19.8036 47.1925 20.7916 47.6112 21.7046 47.5825C22.1855 47.5673 22.7549 47.5369 22.9754 48.094C23.2399 48.7623 22.1034 49.6194 21.6817 50.0354L18.8031 52.9023C18.121 53.5782 17.1377 54.3514 16.6548 55.1993C16.4618 55.538 16.3818 55.8748 16.5029 56.2576C16.6116 56.6007 16.8281 56.8931 17.0613 57.1527C18.2689 58.4974 19.6488 59.7244 20.9257 60.9995C22.1716 62.2442 30.7703 71.0225 31.3647 71.2973C31.7269 71.4644 32.2041 71.4912 32.5702 71.324C33.3815 70.9537 35.4592 68.6435 36.2024 67.8948Z" fill="white" stroke="white" stroke-width="0.4"/>
<path d="M54.7745 15.8258C56.5096 15.7362 57.238 16.7613 58.3797 17.8992L61.358 20.8733C64.5958 24.1069 67.8456 27.3354 71.0743 30.5807C71.7749 31.2334 72.1848 32.0237 72.1796 33.0432C72.172 34.5807 70.7389 35.7042 69.7706 36.6653C68.7174 37.6976 67.6738 38.7403 66.6398 39.7938C67.5932 40.2457 68.328 40.7173 68.8272 41.7548C69.2326 42.5935 69.2995 43.5698 69.0126 44.4617C68.6901 45.4428 68.0095 46.2471 67.1221 46.6943C64.9744 47.7837 62.8491 46.7339 61.8647 44.5345C60.5655 45.8959 59.187 47.1974 57.8757 48.5477C57.4984 48.9364 57.0693 49.3508 56.6134 49.632C56.1567 49.9163 55.6399 50.0755 55.1098 50.0955C54.5842 50.1207 54.0614 50.0035 53.5907 49.756C52.7959 49.3296 50.6008 47.0002 49.8096 46.2047C49.1233 45.5124 47.0953 43.7098 46.7497 42.997C46.6536 42.7987 46.589 42.5559 46.6833 42.3423C46.9331 41.7772 48.4948 42.0471 49.2247 41.6636C49.6546 41.438 49.9454 41.0876 50.0949 40.6049C50.2783 40.0137 50.2643 39.3986 49.9751 38.8483C49.6858 38.2983 49.1646 37.9175 48.5893 37.7724C48.0132 37.6272 47.3477 37.732 46.8495 38.0763C45.8526 38.7651 46.1307 39.6474 45.916 40.6689C45.8686 40.894 45.7656 41.14 45.5578 41.2456C45.3994 41.326 45.1827 41.3208 45.0174 41.262C44.5775 41.1052 39.1285 35.6366 38.5019 34.8814C38.3061 34.6411 38.1488 34.3683 38.0364 34.0743C37.7498 33.3224 37.7611 32.5501 38.0489 31.8086C38.1639 31.5122 38.2926 31.2622 38.4957 31.0214C39.1094 30.2943 44.4897 24.8345 44.9695 24.6521C45.1648 24.5777 45.4302 24.5945 45.61 24.7029C46.2853 25.1092 45.8509 25.9592 46.0004 26.5751C46.134 27.1254 46.5191 27.5998 46.9819 27.877C47.5159 28.1929 48.1482 28.2673 48.7351 28.0837C49.9054 27.713 50.5235 26.4579 50.0708 25.2272C49.5356 23.7346 48.1498 24.0981 47.0134 23.863C46.6069 23.633 46.537 23.0114 46.8223 22.7203C48.9351 20.5649 51.0451 18.3663 53.265 16.3401C53.6015 16.033 54.3286 15.8814 54.7745 15.8258ZM44.5047 27.2386L41.3477 30.3855C40.8028 30.9283 40.1508 31.4966 39.7023 32.1189C39.1772 32.8473 39.4962 33.684 40.0741 34.2411C41.5541 35.721 43.0496 37.1968 44.5323 38.6803C45.2732 36.5513 47.5325 35.5782 49.5011 36.3837C50.4101 36.7505 51.1437 37.4848 51.5395 38.4239C51.9001 39.2946 51.9185 40.2805 51.5912 41.1656C51.2202 42.1587 50.4526 42.8978 49.5288 43.299C49.4422 43.3362 49.3545 43.3718 49.2664 43.405L53.3976 47.5238C54.1728 48.3065 54.8971 48.9336 55.9652 48.1045C56.6198 47.5966 57.2207 46.9206 57.8141 46.3239L60.9141 43.2126C61.2826 42.8422 61.7858 42.2035 62.2425 41.9767C62.4725 41.8627 62.8551 41.8819 63.0434 42.0667C63.7369 42.7483 62.6688 45.2748 65.2837 45.4912C65.8874 45.5408 66.4627 45.32 66.911 44.8936C67.3236 44.5013 67.5424 44.0077 67.5604 43.421C67.5784 42.8438 67.3653 42.3027 66.9819 41.8931C66.7616 41.6576 66.4715 41.4412 66.1662 41.3512C65.6158 41.1884 64.0457 41.5648 63.9977 40.6345C63.9836 40.3601 64.1339 40.0941 64.2905 39.8885C64.7172 39.3294 65.3033 38.8399 65.8005 38.3471L68.8572 35.3194C69.5543 34.6303 70.5695 33.8508 70.5875 32.7901C70.5939 32.4345 70.2482 32.0969 70.0443 31.8314C69.1396 30.8587 68.1549 29.9044 67.2155 28.9661L61.8503 23.6082L57.8894 19.655C57.2311 18.9983 56.5693 18.3131 55.8786 17.694C55.5702 17.4176 55.0814 17.398 54.6948 17.4164C54.5382 17.4712 54.2653 17.5668 54.1403 17.6776C52.4365 19.1842 50.9101 20.9441 49.2439 22.4939C50.2211 22.8711 51.0459 23.491 51.5054 24.5085C51.8912 25.374 51.9305 26.3667 51.6144 27.263C51.2523 28.2477 50.5311 29.0376 49.6129 29.4552C48.6682 29.8888 47.5997 29.9092 46.641 29.512C45.6222 29.0804 44.9533 28.2745 44.5047 27.2386Z" fill="white" stroke="white" stroke-width="0.4"/>
<path d="M31.2283 23.3382C31.4495 23.333 32.0016 23.391 32.0793 23.6522C32.5293 25.1632 32.8442 26.9806 32.9613 28.5597C32.9776 28.7792 32.5944 29.0416 32.4523 29.1368C31.2516 29.2096 31.3433 28.1125 31.151 27.1062C30.9531 26.0707 30.7067 24.9124 30.6875 23.8757C30.6842 23.6954 31.1034 23.417 31.2283 23.3382Z" fill="white" stroke="white" stroke-width="0.4"/>
<path d="M59.4127 54.9326C59.9275 54.9374 60.992 55.123 61.5192 55.2454C62.292 55.4246 64.7162 55.4866 64.6977 56.5669C64.5567 56.9416 64.3548 57.1044 64.0211 57.2832C62.8336 57.2796 60.881 56.7004 59.6559 56.5369C59.2973 56.4889 58.7773 56.1101 58.7617 55.6589C58.8787 55.291 59.0986 55.115 59.4127 54.9326Z" fill="white" stroke="white" stroke-width="0.4"/>
<path d="M22.9106 31.6008C23.7719 31.5308 25.133 32.0071 26.0105 32.0615C26.8785 32.1155 29.3398 32.6879 27.6663 33.9093C26.7176 34.0201 24.5588 33.3646 23.5146 33.2766C22.6379 33.2026 21.7087 32.3843 22.9106 31.6008Z" fill="white" stroke="white" stroke-width="0.4"/>
<path d="M54.4707 59.7729C54.7251 59.7249 55.3152 59.7137 55.4145 60.0157C55.9049 61.5063 56.1537 63.3457 56.3272 64.9216C56.3524 65.1495 55.9466 65.4275 55.7979 65.5247C55.7278 65.5307 55.6573 65.5359 55.5864 65.5351C55.3396 65.5327 55.1085 65.4403 54.9474 65.2383C54.7195 64.9527 53.9523 60.8168 54.0356 60.3796C54.0925 60.0808 54.2571 59.9537 54.4707 59.7729Z" fill="white" stroke="white" stroke-width="0.4"/>
<path d="M56.8148 57.1578C56.8612 57.1566 57.2266 57.1546 57.2687 57.1862C58.4421 58.0857 59.6159 59.316 60.5914 60.4586C60.9636 60.8942 60.4039 61.3941 60.0514 61.5709C59.9604 61.5713 59.8843 61.5721 59.7958 61.5565C59.2682 61.4641 56.7374 58.8736 56.3785 58.3341C56.2651 58.1641 56.2118 57.9541 56.2723 57.7493C56.356 57.4677 56.5904 57.3042 56.8148 57.1578Z" fill="white" stroke="white" stroke-width="0.4"/>
<path d="M26.9198 27.2938C27.0096 27.2862 27.0969 27.2882 27.1869 27.2962C27.7128 27.3418 30.2926 30.0024 30.6578 30.5371C30.7634 30.6919 30.8061 30.8855 30.7583 31.0734C30.6746 31.4038 30.4415 31.5566 30.1709 31.701C30.0697 31.7078 29.9749 31.7082 29.8737 31.695C29.3496 31.6258 26.7658 28.9525 26.4292 28.3985C26.3286 28.2329 26.3045 28.0662 26.3683 27.8758C26.4626 27.5942 26.6902 27.4406 26.9198 27.2938Z" fill="white" stroke="white" stroke-width="0.4"/>
</svg>
