<svg width="23" height="23" viewBox="0 0 23 23" fill="none" xmlns="http://www.w3.org/2000/svg">
<g clip-path="url(#clip0_390_3338)">
<path d="M19.9837 0H20.6029C20.7599 0.0600093 20.9912 0.0819927 21.1736 0.142768C21.8524 0.376095 22.411 0.869054 22.7269 1.51358C22.8136 1.6883 22.8789 1.87276 22.9216 2.06301C22.9379 2.13882 22.9759 2.36307 23 2.42193V2.98377C22.9812 3.03233 22.9719 3.09234 22.9617 3.14414C22.8984 3.46559 22.8099 3.78133 22.7275 4.0986L21.9322 7.16648L19.3176 17.2522L18.7412 19.478C18.6182 19.9546 18.475 20.6261 18.2656 21.0533C17.9478 21.7015 17.3498 22.2051 16.6579 22.4229C15.6481 22.7358 14.5486 22.4301 13.8452 21.6409C13.679 21.456 13.5388 21.2493 13.4286 21.0264C13.3131 20.7924 13.191 20.4516 13.0924 20.1991L12.551 18.812L10.8224 14.3896L10.5583 13.7107C10.4647 13.4699 10.3339 13.0658 10.1639 12.8875C10.0866 12.8078 9.99698 12.7411 9.89847 12.6899C9.72938 12.6011 9.39449 12.4825 9.20604 12.409L7.97375 11.9277C7.85632 11.8822 7.6619 11.815 7.55844 11.7611C7.25944 12.8882 7.02015 14.045 6.72991 15.1756C6.66571 15.4255 6.70848 15.6847 6.85344 15.8995C6.93938 16.0294 7.05766 16.1346 7.19664 16.2048C7.72758 16.4687 8.15191 16.0554 8.66384 16.1617C8.89752 16.2121 9.10156 16.3534 9.23093 16.5544C9.35941 16.7579 9.40119 17.0043 9.34696 17.2387C9.29548 17.4724 9.15084 17.6748 8.94658 17.7993C8.78014 17.902 8.62714 17.9292 8.44399 17.9766C7.9313 18.1091 7.48527 18.1506 6.96 18.0227C6.26195 17.8488 5.66063 17.4066 5.28661 16.7921C5.0364 16.3796 4.90356 15.9066 4.90244 15.4241C4.90253 15.0104 4.99049 14.7105 5.08675 14.3156L5.27552 13.5382L5.86583 11.1051L3.3142 10.1062L2.53443 9.80249C2.38042 9.74261 2.18561 9.6719 2.03839 9.60313C1.37416 9.29541 0.860611 8.73479 0.612162 8.04618C0.374925 7.3684 0.414491 6.6244 0.722275 5.9756C0.984506 5.42126 1.43085 4.97496 1.98525 4.7128C2.36058 4.5332 3.0987 4.36915 3.53238 4.25684L5.98366 3.62158L15.7198 1.09667L18.76 0.3086C19.0777 0.226146 19.3935 0.136519 19.7137 0.0643492C19.7997 0.0449753 19.9022 0.0306869 19.9837 0ZM11.8476 12.1597C12.0132 12.4569 12.1214 12.7694 12.2451 13.0863L12.7341 14.3387L14.3914 18.5791L14.817 19.6709C14.9855 20.1031 15.0951 20.5608 15.5973 20.7057C15.8293 20.774 16.079 20.7471 16.2911 20.6309C16.5535 20.4844 16.6758 20.271 16.7501 19.9883C16.8627 19.56 16.9732 19.1308 17.0844 18.7022L17.7254 16.229L19.6476 8.81448L20.6854 4.81257L21.009 3.56521C21.0684 3.336 21.1322 3.10788 21.1808 2.87619C21.2749 2.42688 21.001 1.95829 20.5544 1.8375C20.4388 1.80673 20.3185 1.79805 20.1996 1.81192C19.9887 1.83796 19.6442 1.93901 19.4311 1.99472L18.1335 2.33271L13.6168 3.50378L6.31294 5.39705L4.05083 5.98593C3.67543 6.08301 3.29736 6.17253 2.92364 6.27541C2.4829 6.39674 2.20471 6.80769 2.26462 7.26158C2.29531 7.4967 2.41795 7.71003 2.60566 7.8549C2.78019 7.98724 3.15965 8.11639 3.37322 8.1995L4.19892 8.52199L8.67498 10.2709L9.91491 10.7548C10.2355 10.88 10.6028 11.008 10.8934 11.1848C11.287 11.4261 11.6148 11.761 11.8476 12.1597Z" fill="#0016F2"/>
<path d="M17.7011 4.33872C17.9193 4.33046 18.1173 4.38371 18.295 4.51378C18.4877 4.65349 18.6158 4.86503 18.6503 5.10046C18.7168 5.56841 18.4758 5.80569 18.1649 6.10532C18.006 6.25846 17.845 6.42525 17.6884 6.58176L16.1297 8.14024L14.6152 9.65455L14.1582 10.1114C13.8895 10.38 13.7751 10.5283 13.3821 10.5865C12.6125 10.6183 12.1432 9.78393 12.5943 9.15039C12.6707 9.04303 12.7953 8.931 12.8898 8.83662L13.3437 8.3838L14.8692 6.85835L16.4797 5.24812L16.9224 4.80434C17.2081 4.51738 17.288 4.39903 17.7011 4.33872Z" fill="#0016F2"/>
<path d="M3.99696 18.0296C4.57975 18.0064 5.01185 18.4353 4.9659 19.0202C4.93396 19.4275 4.5421 19.7266 4.26831 20L3.33919 20.9295L2.52236 21.7461C2.41225 21.8562 2.18804 22.0919 2.073 22.1808C1.94821 22.2786 1.79903 22.3406 1.64161 22.3598C1.40164 22.3858 1.17441 22.3251 0.982467 22.1777C0.793072 22.0322 0.670251 21.8166 0.641735 21.5795C0.577416 21.0299 0.970415 20.7549 1.32072 20.4045L2.28021 19.4462L3.07797 18.6468C3.37469 18.3492 3.55645 18.0805 3.99696 18.0296Z" fill="#0016F2"/>
<path d="M0 16.8456C0.0548815 16.7481 0.0903671 16.586 0.159568 16.5041C0.362923 16.2636 0.606158 16.0346 0.828907 15.8118L1.29841 15.3429C1.49065 15.1512 1.63176 14.9729 1.89962 14.8919C2.13503 14.8185 2.39028 14.8451 2.60549 14.9655C2.81253 15.0788 2.96576 15.2701 3.03114 15.4969C3.09432 15.7214 3.06838 15.9781 2.95314 16.1818C2.91605 16.2462 2.87233 16.3065 2.82268 16.3618C2.70851 16.4897 2.55583 16.6392 2.43062 16.7571C2.10325 17.0655 1.78403 17.4342 1.44726 17.726C1.01417 18.1014 0.268873 17.902 0.071778 17.367C0.0541578 17.3204 0.0237795 17.2288 0 17.1903V16.8456Z" fill="#0016F2"/>
<path d="M5.81689 23C5.73167 22.9625 5.63343 22.9308 5.55351 22.8922C5.37216 22.8047 5.21745 22.6217 5.144 22.4357C5.05596 22.2091 5.06193 21.9567 5.16063 21.7345C5.19903 21.6505 5.2493 21.5725 5.3099 21.5028C5.49237 21.2906 5.83248 20.9799 6.0388 20.7695C6.19917 20.606 6.52418 20.2636 6.67979 20.1361C6.7571 20.072 6.84479 20.0214 6.93908 19.9867C7.16648 19.9062 7.41642 19.9183 7.63492 20.0205C7.85342 20.1222 8.02071 20.309 8.09784 20.5373C8.17421 20.7647 8.15912 21.0129 8.05575 21.2294C8.0274 21.2876 7.95068 21.3944 7.90445 21.4407C7.43682 21.9092 6.97803 22.3941 6.49049 22.841C6.40523 22.9191 6.23457 22.9449 6.14334 23H5.81689Z" fill="#0016F2"/>
</g>
<defs>
<clipPath id="clip0_390_3338">
<rect width="23" height="23" fill="white"/>
</clipPath>
</defs>
</svg>
