<svg width="88" height="88" viewBox="0 0 88 88" fill="none" xmlns="http://www.w3.org/2000/svg">
<circle cx="44" cy="44" r="44" fill="#CFEDAC"/>
<mask id="mask0_126_710" style="mask-type:alpha" maskUnits="userSpaceOnUse" x="0" y="0" width="88" height="88">
<circle cx="44" cy="44" r="44" fill="#CFEDAC"/>
</mask>
<g mask="url(#mask0_126_710)">
<path d="M75.4964 72.5361C73.848 70.3726 71.6035 68.3979 69.1862 67.046C65.0059 64.0393 56.3278 62.9317 50.0795 62.5405L38.4521 61.8122C36.5102 61.6906 34.6078 61.8222 32.7712 62.1389C31.6083 62.3393 30.4759 62.6198 29.3773 62.9719C25.7939 63.393 21.9379 65.2862 19.1189 67.7546C17.687 69.0088 14.6354 72.0923 11.1206 75.7348C19.6263 83.9778 31.2191 89.0535 43.9992 89.0535C57.0429 89.0535 68.8519 83.7683 77.4023 75.2229C76.6099 74.065 75.9559 73.1395 75.4964 72.5361Z" fill="#212121"/>
<path d="M75.4964 72.5361C73.848 70.3726 71.6035 68.3979 69.1862 67.046C65.0059 64.0393 56.3278 62.9317 50.0795 62.5405L38.4521 61.8122C36.5102 61.6906 34.6078 61.8222 32.7712 62.1389C31.6083 62.3393 30.4759 62.6198 29.3773 62.9719C25.7939 63.393 21.9379 65.2862 19.1189 67.7546C17.687 69.0088 14.6354 72.0923 11.1206 75.7348C19.6263 83.9778 31.2191 89.0535 43.9992 89.0535C57.0429 89.0535 68.8519 83.7683 77.4023 75.2229C76.6099 74.065 75.9559 73.1395 75.4964 72.5361Z" stroke="#212121" stroke-width="0.646115" stroke-miterlimit="10" stroke-linecap="round" stroke-linejoin="round"/>
<path d="M25.9886 81.9146C23.0433 80.8934 21.4837 77.6779 22.5049 74.7326L23.8965 70.72C24.1493 69.9907 24.9454 69.6045 25.6745 69.8573L33.6998 72.6402C34.4291 72.893 34.8151 73.6891 34.5622 74.4184L33.171 78.4309C32.1497 81.3763 28.934 82.9362 25.9886 81.9146Z" stroke="white" stroke-width="0.646115" stroke-miterlimit="10" stroke-linecap="round" stroke-linejoin="round"/>
<path d="M25.4629 72.3148L32.3473 74.7019" stroke="white" stroke-width="0.646115" stroke-miterlimit="10" stroke-linecap="round" stroke-linejoin="round"/>
<path d="M52.1027 66.4579C52.0342 70.2164 39.0556 70.6104 39.1356 66.2216L39.3249 55.8478L52.292 56.0844L52.1027 66.4579Z" fill="white"/>
<path d="M52.1027 66.4579C52.0342 70.2164 39.0556 70.6104 39.1356 66.2216L39.3249 55.8478L52.292 56.0844L52.1027 66.4579Z" stroke="#212121" stroke-width="0.646115" stroke-miterlimit="10" stroke-linecap="round" stroke-linejoin="round"/>
<path d="M53.0879 65.7539C53.3347 66.0256 53.5 66.3047 53.5596 66.4799C53.7065 67.2549 53.3764 68.0941 52.9031 68.6938C49.97 72.4208 40.2549 72.6422 37.9316 68.1465C37.6349 67.5182 37.2614 66.8295 37.6868 66.1319C37.7803 65.9788 37.9037 65.8416 38.0393 65.721" stroke="white" stroke-width="0.646115" stroke-miterlimit="10" stroke-linecap="round" stroke-linejoin="round"/>
<path d="M26.9159 34.3265C26.1106 33.4508 24.348 33.2568 25.0958 28.247C25.8436 23.2369 31.7687 14.4214 40.097 15.0597C42.5529 15.5995 43.7398 17.6291 47.109 17.8166C49.0772 17.926 49.8838 17.301 51.2734 17.1396C52.5789 16.988 54.5135 16.9496 56.8575 18.1003C60.6127 19.9436 63.007 23.751 63.1756 27.9308C63.4 33.4942 63.5743 40.4337 63.6882 45.719C63.7992 50.8558 59.5046 55.0382 54.3776 54.7026C53.5825 54.6504 52.7681 54.5632 51.9366 54.4345C35.958 51.9646 27.9848 36.483 26.9159 34.3265Z" fill="#212121"/>
<path d="M26.9159 34.3265C26.1106 33.4508 24.348 33.2568 25.0958 28.247C25.8436 23.2369 31.7687 14.4214 40.097 15.0597C42.5529 15.5995 43.7398 17.6291 47.109 17.8166C49.0772 17.926 49.8838 17.301 51.2734 17.1396C52.5789 16.988 54.5135 16.9496 56.8575 18.1003C60.6127 19.9436 63.007 23.751 63.1756 27.9308C63.4 33.4942 63.5743 40.4337 63.6882 45.719C63.7992 50.8558 59.5046 55.0382 54.3776 54.7026C53.5825 54.6504 52.7681 54.5632 51.9366 54.4345C35.958 51.9646 27.9848 36.483 26.9159 34.3265Z" stroke="#212121" stroke-width="0.646115" stroke-miterlimit="10" stroke-linecap="round" stroke-linejoin="round"/>
<path d="M65.3747 41.3573C65.2173 38.5374 62.8033 36.3796 59.9836 36.5367L57.0606 36.6998C57.0596 36.704 56.7854 31.7882 56.7854 31.7882C56.462 25.9901 51.6561 24.3256 45.8583 24.6487L37.1822 25.1324C31.3842 25.4558 26.6578 25.299 26.981 31.0968L28.0848 50.8435C28.3668 55.9 32.2115 60.0494 37.2356 60.687C41.3162 61.2048 45.708 60.9712 49.8836 59.9183C54.7456 58.6923 58.034 54.1579 57.7548 49.1513L57.6299 46.911C57.6299 46.9115 60.5528 46.7484 60.5528 46.7484C63.3725 46.5914 65.5318 44.1771 65.3747 41.3573Z" fill="white"/>
<path d="M65.3747 41.3573C65.2173 38.5374 62.8033 36.3796 59.9836 36.5367L57.0606 36.6998C57.0596 36.704 56.7854 31.7882 56.7854 31.7882C56.462 25.9901 51.6561 24.3256 45.8583 24.6487L37.1822 25.1324C31.3842 25.4558 26.6578 25.299 26.981 31.0967L28.0848 50.8435C28.3668 55.9 32.2115 60.0494 37.2356 60.687C41.3162 61.2048 45.708 60.9712 49.8836 59.9183C54.7456 58.6923 58.034 54.1579 57.7548 49.1513L57.6299 46.911C57.6299 46.9115 60.5528 46.7484 60.5528 46.7484C63.3725 46.5914 65.5318 44.1771 65.3747 41.3573Z" stroke="#212121" stroke-width="0.646115" stroke-miterlimit="10" stroke-linecap="round" stroke-linejoin="round"/>
<path d="M59.666 39.0297L60.122 39.0043C61.5777 38.923 62.8278 40.0405 62.9089 41.4954C62.9901 42.951 61.8719 44.2011 60.4163 44.2824L59.9602 44.3079" stroke="#212121" stroke-width="0.646115" stroke-miterlimit="10" stroke-linecap="round" stroke-linejoin="round"/>
<path d="M35.2057 41.2914C35.2464 42.369 34.4056 43.2756 33.328 43.316C32.2506 43.3566 31.3441 42.5159 31.3037 41.4382C31.263 40.3609 32.1038 39.4545 33.1811 39.4139C34.2588 39.3733 35.1651 40.214 35.2057 41.2914Z" fill="#212121"/>
<path d="M43.2787 41.4033C43.2383 40.3257 44.0789 39.4194 45.1565 39.3787C46.2341 39.3381 47.1404 40.1788 47.1811 41.2565" stroke="#212121" stroke-width="0.646115" stroke-miterlimit="10" stroke-linecap="round" stroke-linejoin="round"/>
<path d="M38.719 41.5699C38.719 41.5699 37.6643 44.7165 37.7937 48.1514L40.2726 48.0581" stroke="#212121" stroke-width="0.646115" stroke-miterlimit="10" stroke-linecap="round" stroke-linejoin="round"/>
<path d="M37.5689 50.8749C37.2149 50.9372 37.0443 51.3439 37.2455 51.6418C37.8469 52.5322 39.2863 53.0034 40.8452 52.7294C42.4018 52.4556 43.5938 51.5216 43.8554 50.4794C43.9426 50.1308 43.6437 49.8067 43.2896 49.8688L37.5689 50.8749Z" fill="white"/>
<path d="M37.5689 50.8749C37.2149 50.9372 37.0443 51.3439 37.2455 51.6418C37.8469 52.5322 39.2863 53.0034 40.8452 52.7294C42.4018 52.4556 43.5938 51.5216 43.8554 50.4794C43.9426 50.1308 43.6437 49.8067 43.2896 49.8688L37.5689 50.8749Z" stroke="#212121" stroke-width="0.646115" stroke-miterlimit="10" stroke-linecap="round" stroke-linejoin="round"/>
<path d="M47.6875 44.1137L46.7837 46.1318" stroke="#212121" stroke-width="0.646115" stroke-miterlimit="10" stroke-linecap="round" stroke-linejoin="round"/>
<path d="M48.9121 44.0691L48.0083 46.0869" stroke="#212121" stroke-width="0.646115" stroke-miterlimit="10" stroke-linecap="round" stroke-linejoin="round"/>
<path d="M50.1367 44.0217L49.2329 46.0396" stroke="#212121" stroke-width="0.646115" stroke-miterlimit="10" stroke-linecap="round" stroke-linejoin="round"/>
<path d="M32.1743 44.9976L33.2273 46.9419" stroke="#212121" stroke-width="0.646115" stroke-miterlimit="10" stroke-linecap="round" stroke-linejoin="round"/>
<path d="M30.9507 45.0428L32.0036 46.9871" stroke="#212121" stroke-width="0.646115" stroke-miterlimit="10" stroke-linecap="round" stroke-linejoin="round"/>
<path d="M29.7275 45.0879L30.7805 47.0322" stroke="#212121" stroke-width="0.646115" stroke-miterlimit="10" stroke-linecap="round" stroke-linejoin="round"/>
<path d="M36.0301 38.0826L30.1307 38.4149C29.4166 38.4551 28.8049 37.9088 28.7648 37.1947C28.7244 36.4806 29.2707 35.869 29.985 35.8288L35.8845 35.4965C36.5986 35.4563 37.2102 36.0026 37.2504 36.7167C37.2908 37.4308 36.7442 38.0424 36.0301 38.0826Z" fill="#212121"/>
<path d="M48.0033 37.4078L42.1038 37.7401C41.3897 37.7803 40.7781 37.234 40.7379 36.5199C40.6976 35.8058 41.2438 35.1942 41.9579 35.154L47.8577 34.8217C48.5718 34.7813 49.1834 35.3276 49.2235 36.0416C49.2637 36.756 48.7174 37.3674 48.0033 37.4078Z" fill="#212121"/>
<path d="M51.3339 21.7087C48.668 20.8921 31.6413 20.6817 28.5206 23.6645C25.3999 26.6473 26.6274 31.787 27.0755 32.7749C27.3856 29.3907 27.9731 27.6935 30.2226 26.7445C32.5461 25.7644 44.6919 24.8316 47.7622 25.5746C49.3492 25.9586 52.6915 27.5386 52.9366 31.8918L53.3692 39.5683C53.4006 40.1295 53.8814 40.5586 54.4424 40.5272L56.2533 40.425C56.8145 40.3935 57.2436 39.9131 57.2122 39.3518C57.2122 39.3518 56.5565 27.7144 56.5091 26.8752C56.3498 24.044 53.9995 22.5255 51.3339 21.7087Z" fill="#212121"/>
<path d="M51.3339 21.7087C48.668 20.8921 31.6413 20.6817 28.5206 23.6645C25.3999 26.6473 26.6274 31.787 27.0755 32.7749C27.3856 29.3907 27.9731 27.6935 30.2226 26.7445C32.5461 25.7644 44.6919 24.8316 47.7622 25.5746C49.3492 25.9586 52.6915 27.5386 52.9366 31.8918L53.3692 39.5683C53.4006 40.1295 53.8814 40.5586 54.4424 40.5272L56.2533 40.425C56.8145 40.3935 57.2436 39.9131 57.2122 39.3518C57.2122 39.3518 56.5565 27.7144 56.5091 26.8752C56.3498 24.044 53.9995 22.5255 51.3339 21.7087Z" stroke="#212121" stroke-width="0.646115" stroke-miterlimit="10" stroke-linecap="round" stroke-linejoin="round"/>
<path d="M71.8289 28.5223L61.9323 29.0798L61.7715 26.2265L71.6683 25.6687C72.4562 25.6243 73.1309 26.2272 73.1753 27.0151C73.2197 27.8032 72.617 28.4779 71.8289 28.5223Z" fill="white"/>
<path d="M71.8289 28.5223L61.9323 29.0798L61.7715 26.2265L71.6683 25.6687C72.4562 25.6243 73.1309 26.2272 73.1753 27.0151C73.2197 27.8032 72.617 28.4779 71.8289 28.5223Z" stroke="#212121" stroke-width="0.646115" stroke-miterlimit="10" stroke-linecap="round" stroke-linejoin="round"/>
<path d="M45.1543 27.2512L32.8337 27.9451L32.8077 27.482C32.616 24.0796 35.2193 21.1674 38.6217 20.9757C40.3232 20.8799 41.9017 21.4813 43.0786 22.5345C44.2554 23.5857 45.0323 25.0867 45.1281 26.7881L45.1543 27.2512ZM39.057 11.7683C34.6503 12.0166 23.2964 15.3647 23.825 30.5616C23.8384 30.9256 24.1461 31.2091 24.5099 31.1884L63.1193 29.0135C63.4828 28.993 63.7586 28.6749 63.7294 28.3118C62.5515 13.9133 50.0612 11.1484 39.057 11.7683Z" fill="white"/>
<path d="M45.1543 27.2512L32.8337 27.9451L32.8077 27.482C32.616 24.0796 35.2193 21.1674 38.6217 20.9757C40.3232 20.8799 41.9017 21.4813 43.0786 22.5345C44.2554 23.5857 45.0323 25.0867 45.1281 26.7881L45.1543 27.2512ZM39.057 11.7683C34.6503 12.0166 23.2964 15.3647 23.825 30.5616C23.8384 30.9256 24.1461 31.2091 24.5099 31.1884L63.1193 29.0135C63.4828 28.993 63.7586 28.6749 63.7294 28.3118C62.5515 13.9133 50.0612 11.1484 39.057 11.7683Z" stroke="#212121" stroke-width="0.646115" stroke-miterlimit="10" stroke-linecap="round" stroke-linejoin="round"/>
<path d="M24.1658 47.8449C22.5713 48.0987 21.2967 49.3103 20.9486 50.8713C20.6005 49.3103 19.3249 48.0987 17.7314 47.8449C19.3249 47.5901 20.6005 46.3796 20.9486 44.8188C21.2967 46.3796 22.5713 47.5901 24.1658 47.8449Z" fill="white"/>
<path d="M24.1658 47.8449C22.5713 48.0987 21.2967 49.3103 20.9486 50.8713C20.6005 49.3103 19.3249 48.0987 17.7314 47.8449C19.3249 47.5901 20.6005 46.3796 20.9486 44.8188C21.2967 46.3796 22.5713 47.5901 24.1658 47.8449Z" stroke="#212121" stroke-width="0.646115" stroke-miterlimit="10" stroke-linecap="round" stroke-linejoin="round"/>
<path d="M68.0675 58.7956C65.9891 58.6587 64.0393 59.8186 63.1549 61.6824C63.1634 59.6194 61.9052 57.7302 59.9731 56.9552C62.0506 57.0904 64.0016 55.9325 64.886 54.0685C64.8775 56.1314 66.1347 58.0189 68.0675 58.7956Z" fill="white"/>
<path d="M68.0675 58.7956C65.9891 58.6587 64.0393 59.8186 63.1549 61.6824C63.1634 59.6194 61.9052 57.7302 59.9731 56.9552C62.0506 57.0904 64.0016 55.9325 64.886 54.0685C64.8775 56.1314 66.1347 58.0189 68.0675 58.7956Z" stroke="#212121" stroke-width="0.646115" stroke-miterlimit="10" stroke-linecap="round" stroke-linejoin="round"/>
<path d="M27.9715 59.0039C26.9951 59.1592 26.2144 59.9015 26.0012 60.8574C25.7881 59.9015 25.0067 59.1592 24.0308 59.0039C25.0067 58.8478 25.7881 58.1063 26.0012 57.1503C26.2144 58.1063 26.9951 58.8478 27.9715 59.0039Z" fill="white"/>
<path d="M27.9715 59.0039C26.9951 59.1592 26.2144 59.9015 26.0012 60.8574C25.7881 59.9015 25.0067 59.1592 24.0308 59.0039C25.0067 58.8478 25.7881 58.1063 26.0012 57.1503C26.2144 58.1063 26.9951 58.8478 27.9715 59.0039Z" stroke="#212121" stroke-width="0.646115" stroke-miterlimit="10" stroke-linecap="round" stroke-linejoin="round"/>
</g>
</svg>
