<svg width="88" height="88" viewBox="0 0 88 88" fill="none" xmlns="http://www.w3.org/2000/svg">
<circle cx="44" cy="44" r="44" fill="#CFEDAC"/>
<circle cx="44" cy="44" r="44" fill="#CFEDAC"/>
<mask id="mask0_126_1162" style="mask-type:alpha" maskUnits="userSpaceOnUse" x="0" y="0" width="88" height="88">
<circle cx="44" cy="44" r="44" fill="#CFEDAC"/>
</mask>
<g mask="url(#mask0_126_1162)">
<path d="M90.6638 42.351C90.6638 68.4257 69.526 89.5635 43.4513 89.5635C17.3767 89.5635 -3.76123 68.4257 -3.76123 42.351C-3.76123 16.2764 17.3767 -4.86145 43.4513 -4.86145C69.526 -4.86145 90.6638 16.2764 90.6638 42.351Z" stroke="#212121" stroke-width="0.498505" stroke-miterlimit="10" stroke-linecap="round" stroke-linejoin="round"/>
<path d="M43.4516 89.5635C56.8958 89.5635 69.0274 83.9443 77.6262 74.9261C72.5742 68.6243 64.8615 64.5367 56.1427 64.4566C55.9956 64.4551 55.8481 64.4546 55.6996 64.4546H42.4555C38.3415 64.4546 34.7566 64.965 31.5936 65.8941C24.1608 68.0767 18.4945 73.7271 15.9624 80.7392C23.7048 86.2931 33.1961 89.5635 43.4516 89.5635Z" fill="white" stroke="#212121" stroke-width="0.498505" stroke-miterlimit="10" stroke-linecap="round" stroke-linejoin="round"/>
<path d="M67.7582 60.7656H45.2197V19.1374H58.6992C62.3356 19.1374 65.3451 21.9656 65.5707 25.5952L67.7582 60.7656Z" fill="#212121"/>
<path d="M67.7582 60.7656H45.2197V19.1374H58.6992C62.3356 19.1374 65.3451 21.9656 65.5707 25.5952L67.7582 60.7656Z" stroke="#212121" stroke-width="0.498505" stroke-miterlimit="10" stroke-linecap="round" stroke-linejoin="round"/>
<path d="M23.918 60.7656H46.4564V19.1374H32.977C29.3403 19.1374 26.3308 21.9656 26.1052 25.5952L23.918 60.7656Z" fill="#212121"/>
<path d="M23.918 60.7656H46.4564V19.1374H32.977C29.3403 19.1374 26.3308 21.9656 26.1052 25.5952L23.918 60.7656Z" stroke="#212121" stroke-width="0.498505" stroke-miterlimit="10" stroke-linecap="round" stroke-linejoin="round"/>
<path d="M38.0815 67.6943H51.0392V57.3283H38.0815V67.6943Z" fill="white"/>
<path d="M38.0815 67.6943V57.3283H51.0392V67.6943" stroke="#212121" stroke-width="0.498505" stroke-miterlimit="10" stroke-linecap="round" stroke-linejoin="round"/>
<path d="M48.7816 59.4882C44.5571 60.304 40.1628 60.2904 36.1212 59.5443C31.1451 58.6259 27.5429 54.2706 27.5459 49.2104L27.5545 34.5722C27.558 28.7702 32.2642 24.0695 38.0662 24.0731L46.7483 24.0781C52.5503 24.0814 57.251 28.7876 57.2477 34.5896L57.2391 49.1897C57.2361 54.1999 53.7011 58.5385 48.7816 59.4882Z" fill="white"/>
<path d="M48.7816 59.4882C44.557 60.304 40.1628 60.2904 36.1212 59.5443C31.1451 58.6259 27.5429 54.2706 27.5459 49.2104L27.5545 34.5722C27.558 28.7702 32.2642 24.0695 38.0662 24.0731L46.7483 24.0781C52.5503 24.0814 57.251 28.7876 57.2477 34.5896L57.2391 49.1897C57.2361 54.1999 53.7011 58.5385 48.7816 59.4882Z" stroke="#212121" stroke-width="0.498505" stroke-miterlimit="10" stroke-linecap="round" stroke-linejoin="round"/>
<path d="M56.4854 46.9494L60.1654 46.9512C62.9872 46.9529 65.2766 44.6661 65.2783 41.8443C65.2801 39.0225 62.993 36.7345 60.1715 36.7327L56.4914 36.7309" fill="white"/>
<path d="M56.4854 46.9494L60.1654 46.9512C62.9872 46.9529 65.2766 44.6661 65.2783 41.8443C65.2801 39.0225 62.993 36.7345 60.1715 36.7327L56.4914 36.7309" stroke="#212121" stroke-width="0.498505" stroke-miterlimit="10" stroke-linecap="round" stroke-linejoin="round"/>
<path d="M59.714 39.203L60.1704 39.2033C61.6269 39.204 62.8112 40.3891 62.8104 41.8448C62.8094 43.3013 61.6239 44.4856 60.1674 44.4849L59.7109 44.4846" stroke="#212121" stroke-width="0.498505" stroke-miterlimit="10" stroke-linecap="round" stroke-linejoin="round"/>
<path d="M35.1874 40.0847C35.1672 41.1618 34.2777 42.0188 33.2004 41.9987C32.1234 41.9785 31.2663 41.089 31.2865 40.012C31.3066 38.9347 32.1961 38.0779 33.2734 38.0981C34.3505 38.1179 35.2075 39.0077 35.1874 40.0847Z" fill="#212121"/>
<path d="M47.1683 40.0847C47.1482 41.1618 46.2587 42.0188 45.1814 41.9987C44.1043 41.9785 43.2473 41.089 43.2674 40.012C43.2876 38.9347 44.1771 38.0779 45.2541 38.0981C46.3314 38.1179 47.1882 39.0077 47.1683 40.0847Z" fill="#212121"/>
<path d="M38.6764 40.5528C38.6764 40.5528 37.4475 43.6324 37.3833 47.0662L39.8614 47.1123" stroke="#212121" stroke-width="0.498505" stroke-miterlimit="10" stroke-linecap="round" stroke-linejoin="round"/>
<path d="M42.4439 50.8756C42.5205 51.6838 41.5839 52.4335 40.3525 52.5501C39.1209 52.6667 38.0604 52.1057 37.9839 51.2976C37.9073 50.4894 38.8439 49.7396 40.0756 49.6231C41.3072 49.5067 42.3674 50.0674 42.4439 50.8756Z" fill="white"/>
<path d="M42.4439 50.8756C42.5205 51.6838 41.5839 52.4335 40.3525 52.5501C39.1209 52.6667 38.0604 52.1057 37.9839 51.2976C37.9073 50.4894 38.8439 49.7396 40.0756 49.6231C41.3072 49.5067 42.3674 50.0674 42.4439 50.8756Z" stroke="#212121" stroke-width="0.498505" stroke-miterlimit="10" stroke-linecap="round" stroke-linejoin="round"/>
<path d="M36.7681 51.0245C36.7681 51.0245 38.2678 51.4081 40.1181 51.2238C41.9683 51.0396 43.4681 50.0269 43.4681 50.0269" stroke="#212121" stroke-width="0.498505" stroke-miterlimit="10" stroke-linecap="round" stroke-linejoin="round"/>
<path d="M47.4797 43.5968L46.4648 45.5591" stroke="#212121" stroke-width="0.498505" stroke-miterlimit="10" stroke-linecap="round" stroke-linejoin="round"/>
<path d="M48.7026 43.621L47.6875 45.583" stroke="#212121" stroke-width="0.498505" stroke-miterlimit="10" stroke-linecap="round" stroke-linejoin="round"/>
<path d="M49.9272 43.6461L48.9121 45.6084" stroke="#212121" stroke-width="0.498505" stroke-miterlimit="10" stroke-linecap="round" stroke-linejoin="round"/>
<path d="M31.9541 43.6096L32.8952 45.6084" stroke="#212121" stroke-width="0.498505" stroke-miterlimit="10" stroke-linecap="round" stroke-linejoin="round"/>
<path d="M30.731 43.5845L31.6721 45.583" stroke="#212121" stroke-width="0.498505" stroke-miterlimit="10" stroke-linecap="round" stroke-linejoin="round"/>
<path d="M29.5063 43.5603L30.4475 45.5591" stroke="#212121" stroke-width="0.498505" stroke-miterlimit="10" stroke-linecap="round" stroke-linejoin="round"/>
<path d="M36.1885 36.9268H30.2846C29.57 36.9268 28.9907 36.3474 28.9907 35.6329C28.9907 34.9182 29.57 34.3388 30.2846 34.3388H36.1885C36.903 34.3388 37.4823 34.9182 37.4823 35.6329C37.4823 36.3474 36.903 36.9268 36.1885 36.9268Z" fill="#212121"/>
<path d="M48.1687 36.9268H42.265C41.5505 36.9268 40.9712 36.3474 40.9712 35.6329C40.9712 34.9182 41.5505 34.3388 42.265 34.3388H48.1687C48.8835 34.3388 49.4628 34.9182 49.4628 35.6329C49.4628 36.3474 48.8835 36.9268 48.1687 36.9268Z" fill="#212121"/>
<path d="M54.9705 31.459H24.1694V27.1657C24.1694 21.4951 28.7662 16.8984 34.4364 16.8984H50.9571C53.1738 16.8984 54.9705 18.6953 54.9705 20.912V31.459Z" fill="#212121"/>
<path d="M54.9705 31.459H24.1694V27.1657C24.1694 21.4951 28.7662 16.8984 34.4364 16.8984H50.9571C53.1738 16.8984 54.9705 18.6953 54.9705 20.912V31.459Z" stroke="#212121" stroke-width="0.498505" stroke-miterlimit="10" stroke-linecap="round" stroke-linejoin="round"/>
<path d="M64.3092 51.2782C64.3092 52.9621 62.9441 54.3271 61.2603 54.3271C59.5765 54.3271 58.2114 52.9621 58.2114 51.2782C58.2114 49.5944 59.5765 48.2294 61.2603 48.2294C62.9441 48.2294 64.3092 49.5944 64.3092 51.2782Z" fill="#212121"/>
<path d="M64.3092 51.2782C64.3092 52.9621 62.9441 54.3271 61.2603 54.3271C59.5765 54.3271 58.2114 52.9621 58.2114 51.2782C58.2114 49.5944 59.5765 48.2294 61.2603 48.2294C62.9441 48.2294 64.3092 49.5944 64.3092 51.2782Z" stroke="white" stroke-width="0.498505" stroke-miterlimit="10" stroke-linecap="round" stroke-linejoin="round"/>
<path d="M43.4532 89.5635C57.6771 89.5635 70.4317 83.273 79.0876 73.3225C76.6771 70.7063 73.6786 68.5551 70.4901 67.0213C65.9266 64.8263 64.0917 63.3491 57.0225 63.3236C56.7546 63.3226 56.5703 63.3513 56.3706 63.7977C56.171 64.2444 44.5635 81.815 42.09 81.5816C39.6166 81.3482 36.3029 65.6599 36.2526 64.3003C36.2407 63.9843 35.9635 63.7469 35.6498 63.7874C30.8879 64.4045 22.858 67.261 20.0325 68.8399C19.108 69.3565 18.263 69.921 17.4966 70.5275C14.9086 72.2555 12.915 74.81 11.6099 77.208C20.0056 84.8819 31.1825 89.5635 43.4532 89.5635Z" fill="#212121" stroke="#212121" stroke-width="0.498505" stroke-miterlimit="10" stroke-linecap="round" stroke-linejoin="round"/>
<path d="M29.9238 70.9415C30.7758 69.1673 31.3773 68.3274 31.7283 68.4216C32.2406 68.5588 32.22 70.6849 31.6661 74.7993C28.0822 73.039 26.3817 71.8672 26.564 71.2836C26.6959 70.8609 27.8161 70.7469 29.9238 70.9415Z" fill="white"/>
<path d="M29.9238 70.9415C30.7758 69.1673 31.3773 68.3274 31.7283 68.4216C32.2406 68.5588 32.22 70.6849 31.6661 74.7993C28.0822 73.039 26.3817 71.8672 26.564 71.2836C26.6959 70.8609 27.8161 70.7469 29.9238 70.9415Z" stroke="#212121" stroke-width="0.498505" stroke-miterlimit="10" stroke-linecap="round" stroke-linejoin="round"/>
<path d="M21.3697 77.2419C22.913 76.1009 24.2716 75.1933 24.5118 75.4219C24.8851 75.7772 23.6824 77.789 20.9029 81.4575C18.8984 78.1181 18.1723 76.1994 18.7252 75.7019C19.1177 75.3486 19.6879 76.1626 21.3697 77.2419Z" fill="white"/>
<path d="M21.3697 77.2419C22.913 76.1009 24.2716 75.1933 24.5118 75.4219C24.8851 75.7772 23.6824 77.789 20.9029 81.4575C18.8984 78.1181 18.1723 76.1994 18.7252 75.7019C19.1177 75.3486 19.6879 76.1626 21.3697 77.2419Z" stroke="#212121" stroke-width="0.498505" stroke-miterlimit="10" stroke-linecap="round" stroke-linejoin="round"/>
<path d="M62.6699 68.7468C60.4237 67.4746 59.1794 66.9925 58.9367 67.3001C58.614 67.7093 60.0609 69.5139 63.2767 72.7134C65.0801 68.9819 65.7644 66.9754 65.3299 66.6936C65.0184 66.4915 64.1317 67.176 62.6699 68.7468Z" fill="white"/>
<path d="M62.6699 68.7468C60.4237 67.4746 59.1794 66.9925 58.9367 67.3001C58.614 67.7093 60.0609 69.5139 63.2767 72.7134C65.0801 68.9819 65.7644 66.9754 65.3299 66.6936C65.0184 66.4915 64.1317 67.176 62.6699 68.7468Z" stroke="#212121" stroke-width="0.498505" stroke-miterlimit="10" stroke-linecap="round" stroke-linejoin="round"/>
<path d="M56.2759 79.8054C53.8204 78.9885 52.5138 78.7397 52.3561 79.059C52.1512 79.4729 53.8783 80.8417 57.536 83.1655C59.0285 78.957 59.5572 76.7482 59.1226 76.5388C58.7785 76.3731 57.8293 77.462 56.2759 79.8054Z" fill="white"/>
<path d="M56.2759 79.8054C53.8204 78.9885 52.5138 78.7397 52.3561 79.059C52.1512 79.4729 53.8783 80.8417 57.536 83.1655C59.0285 78.957 59.5572 76.7482 59.1226 76.5388C58.7785 76.3731 57.8293 77.462 56.2759 79.8054Z" stroke="#212121" stroke-width="0.498505" stroke-miterlimit="10" stroke-linecap="round" stroke-linejoin="round"/>
<path d="M73.2197 73.048C72.1456 72.0004 71.4639 71.5689 71.1748 71.7532C70.7297 72.0366 71.2151 73.7804 72.6313 76.9844C75.1417 74.5485 76.2338 73.0951 75.9075 72.6243C75.6832 72.3002 74.7872 72.4415 73.2197 73.048Z" fill="white"/>
<path d="M73.2197 73.048C72.1456 72.0004 71.4639 71.5689 71.1748 71.7532C70.7297 72.0366 71.2151 73.7804 72.6313 76.9844C75.1417 74.5485 76.2338 73.0951 75.9075 72.6243C75.6832 72.3002 74.7872 72.4415 73.2197 73.048Z" stroke="#212121" stroke-width="0.498505" stroke-miterlimit="10" stroke-linecap="round" stroke-linejoin="round"/>
<path d="M34.1547 82.4208C32.0078 81.9484 30.4509 82.0086 30.324 82.3314C30.1407 82.7966 32.0562 84.0882 36.0698 86.2056C36.7272 82.0333 36.7529 79.8515 36.1471 79.6591C35.695 79.5156 35.3105 80.3464 34.1547 82.4208Z" fill="white"/>
<path d="M34.1547 82.4208C32.0078 81.9484 30.4509 82.0086 30.324 82.3314C30.1407 82.7966 32.0562 84.0882 36.0698 86.2056C36.7272 82.0333 36.7529 79.8515 36.1471 79.6591C35.695 79.5156 35.3105 80.3464 34.1547 82.4208Z" stroke="#212121" stroke-width="0.498505" stroke-miterlimit="10" stroke-linecap="round" stroke-linejoin="round"/>
</g>
</svg>
