<svg width="88" height="88" viewBox="0 0 88 88" fill="none" xmlns="http://www.w3.org/2000/svg">
<circle cx="44" cy="44" r="44" fill="#CFEDAC"/>
<mask id="mask0_126_910" style="mask-type:alpha" maskUnits="userSpaceOnUse" x="0" y="0" width="88" height="88">
<circle cx="44" cy="44" r="44" fill="#CFEDAC"/>
</mask>
<g mask="url(#mask0_126_910)">
<path d="M42.9006 88.6587C56.2439 88.6587 68.1494 82.9139 76.6833 73.9635C71.6696 67.7091 64.15 63.8196 55.4966 63.74C55.3507 63.7386 55.2041 63.7381 55.057 63.7381H41.9122C37.8288 63.7381 34.2709 64.2447 31.1317 65.1668C23.7547 67.3331 18.1982 72.7575 15.6851 79.7168C23.3692 85.229 32.722 88.6587 42.9006 88.6587Z" fill="white"/>
<path d="M42.9006 88.6587C56.2439 88.6587 68.1494 82.9139 76.6833 73.9635C71.6696 67.7091 64.15 63.8196 55.4966 63.74C55.3507 63.7386 55.2041 63.7381 55.057 63.7381H41.9122C37.8288 63.7381 34.2709 64.2447 31.1317 65.1668C23.7547 67.3331 18.1982 72.7575 15.6851 79.7168C23.3692 85.229 32.722 88.6587 42.9006 88.6587Z" stroke="#212121" stroke-width="0.465649" stroke-miterlimit="10" stroke-linecap="round" stroke-linejoin="round"/>
<path d="M51.0718 52.7412H54.9829C59.1896 52.7412 62.5996 49.3312 62.5996 45.1246V37.292H51.0718V52.7412Z" fill="#212121"/>
<path d="M51.0718 52.7412H54.9829C59.1896 52.7412 62.5996 49.3312 62.5996 45.1246V37.292H51.0718V52.7412Z" stroke="#212121" stroke-width="0.465649" stroke-miterlimit="10" stroke-linecap="round" stroke-linejoin="round"/>
<path d="M50.4333 66.9564C50.4333 70.6841 37.5723 71.3094 37.5723 66.9564V56.6674H50.4333V66.9564Z" fill="white"/>
<path d="M50.4333 66.9564C50.4333 70.6841 37.5723 71.3094 37.5723 66.9564V56.6674H50.4333V66.9564Z" stroke="#212121" stroke-width="0.465649" stroke-miterlimit="10" stroke-linecap="round" stroke-linejoin="round"/>
<path d="M48.1913 58.8092C43.9984 59.6189 39.6369 59.6054 35.6258 58.8648C30.6871 57.9533 27.1118 53.6307 27.1147 48.6085L27.1232 34.0801C27.1267 28.3216 31.7976 23.6562 37.5562 23.6596L46.1731 23.6646C51.9317 23.6681 56.5971 28.339 56.5936 34.0976L56.5851 48.588C56.5824 53.5606 53.0736 57.8665 48.1913 58.8092Z" fill="white"/>
<path d="M48.1913 58.8092C43.9984 59.6189 39.6369 59.6054 35.6258 58.8648C30.6871 57.9533 27.1118 53.6307 27.1147 48.6085L27.1232 34.0801C27.1267 28.3216 31.7976 23.6562 37.5562 23.6596L46.1731 23.6646C51.9317 23.6681 56.5971 28.339 56.5936 34.0976L56.5851 48.588C56.5824 53.5606 53.0736 57.8665 48.1913 58.8092Z" stroke="#212121" stroke-width="0.465649" stroke-miterlimit="10" stroke-linecap="round" stroke-linejoin="round"/>
<path d="M55.8652 46.3674L59.4894 46.3691C62.29 46.3709 64.5625 44.1011 64.5642 41.3003C64.5657 38.4997 62.296 36.2287 59.4954 36.2269L55.8712 36.2252" fill="white"/>
<path d="M55.8652 46.3674L59.4894 46.3691C62.29 46.3709 64.5625 44.1011 64.5642 41.3003C64.5657 38.4997 62.296 36.2287 59.4954 36.2269L55.8712 36.2252" stroke="#212121" stroke-width="0.465649" stroke-miterlimit="10" stroke-linecap="round" stroke-linejoin="round"/>
<path d="M59.0413 38.6731L59.4941 38.6734C60.9398 38.6744 62.1152 39.8505 62.1145 41.2954C62.1135 42.7411 60.9368 43.9165 59.4911 43.9155L59.0381 43.9153" stroke="#212121" stroke-width="0.465649" stroke-miterlimit="10" stroke-linecap="round" stroke-linejoin="round"/>
<path d="M34.698 39.5511C34.6781 40.6203 33.7954 41.4708 32.7262 41.4508C31.6571 41.4309 30.8066 40.548 30.8265 39.4788C30.8465 38.4099 31.7294 37.5591 32.7983 37.5791C33.8675 37.599 34.718 38.4819 34.698 39.5511Z" fill="#212121"/>
<path d="M46.5918 39.5511C46.5719 40.6203 45.689 41.4708 44.6198 41.4508C43.5509 41.4309 42.7001 40.548 42.7201 39.4788C42.74 38.4099 43.6229 37.5591 44.6921 37.5791C45.7613 37.599 46.6118 38.4819 46.5918 39.5511Z" fill="#212121"/>
<path d="M38.1603 40.0195C38.1603 40.0195 36.9405 43.0762 36.877 46.4844L39.3364 46.5303" stroke="#212121" stroke-width="0.465649" stroke-miterlimit="10" stroke-linecap="round" stroke-linejoin="round"/>
<path d="M36.2681 50.4096C36.2681 50.4096 37.7566 50.7904 39.593 50.6076C41.4297 50.4246 42.9182 49.4195 42.9182 49.4195" stroke="#212121" stroke-width="0.465649" stroke-miterlimit="10" stroke-linecap="round" stroke-linejoin="round"/>
<path d="M46.8994 43.0402L45.8921 44.9878" stroke="#212121" stroke-width="0.465649" stroke-miterlimit="10" stroke-linecap="round" stroke-linejoin="round"/>
<path d="M48.1135 43.0617L47.106 45.0093" stroke="#212121" stroke-width="0.465649" stroke-miterlimit="10" stroke-linecap="round" stroke-linejoin="round"/>
<path d="M49.3272 43.0873L48.3198 45.0347" stroke="#212121" stroke-width="0.465649" stroke-miterlimit="10" stroke-linecap="round" stroke-linejoin="round"/>
<path d="M31.4912 43.0509L32.4255 45.0347" stroke="#212121" stroke-width="0.465649" stroke-miterlimit="10" stroke-linecap="round" stroke-linejoin="round"/>
<path d="M30.2749 43.0253L31.2089 45.0093" stroke="#212121" stroke-width="0.465649" stroke-miterlimit="10" stroke-linecap="round" stroke-linejoin="round"/>
<path d="M29.061 43.004L29.9951 44.9878" stroke="#212121" stroke-width="0.465649" stroke-miterlimit="10" stroke-linecap="round" stroke-linejoin="round"/>
<path d="M35.692 36.4175H29.8322C29.1231 36.4175 28.5479 35.8425 28.5479 35.1331C28.5479 34.4238 29.1231 33.8488 29.8322 33.8488H35.692C36.4013 33.8488 36.9763 34.4238 36.9763 35.1331C36.9763 35.8425 36.4013 36.4175 35.692 36.4175Z" fill="#212121"/>
<path d="M47.5845 36.4175H41.7248C41.0154 36.4175 40.4404 35.8425 40.4404 35.1331C40.4404 34.4238 41.0154 33.8488 41.7248 33.8488H47.5845C48.2937 33.8488 48.8687 34.4238 48.8687 35.1331C48.8687 35.8425 48.2937 36.4175 47.5845 36.4175Z" fill="#212121"/>
<path d="M62.3724 28.6094C63.0519 28.671 63.7313 28.7329 64.4106 28.7947C64.0652 27.561 62.1929 21.3591 55.8417 17.8172C50.8 15.0054 45.9297 15.5395 44.3548 15.7791C44.3548 15.7791 45.0959 14.0963 47.5042 12.9074C46.5106 12.5703 40.8905 10.7701 35.2299 13.8337C31.4554 15.8766 29.639 19.0131 28.977 20.3184C28.8161 19.9967 28.5302 19.317 28.5601 18.4194C28.594 17.4066 29.0106 16.683 29.2086 16.3813C25.369 18.0583 23.087 21.8358 23.5114 25.5523C23.8944 28.9047 26.3305 30.9408 27.4026 31.6888C27.9636 29.3071 29.3425 27.2443 31.2245 25.8056C31.8434 25.3326 32.6079 25.0892 33.3866 25.0892H50.3315C51.106 25.0892 51.867 25.3291 52.4833 25.7984C52.509 25.8178 52.5347 25.8375 52.5601 25.8572C53.4201 26.5245 53.8963 27.5732 53.8963 28.6618V33.805C53.8963 35.1394 54.9782 36.2213 56.3127 36.2213H56.5915L59.4945 36.2231C60.6655 36.2238 61.7404 36.625 62.5986 37.292C62.7958 36.048 62.9355 34.5398 62.8821 32.8243C62.8317 31.2033 62.6218 29.7818 62.3724 28.6094Z" fill="#212121"/>
<path d="M62.3724 28.6094C63.0519 28.671 63.7313 28.7329 64.4106 28.7947C64.0652 27.561 62.1929 21.3591 55.8417 17.8172C50.8 15.0054 45.9297 15.5395 44.3548 15.7791C44.3548 15.7791 45.0959 14.0963 47.5042 12.9074C46.5106 12.5703 40.8905 10.7701 35.2299 13.8337C31.4554 15.8766 29.639 19.0131 28.977 20.3184C28.8161 19.9967 28.5302 19.317 28.5601 18.4194C28.594 17.4066 29.0106 16.683 29.2086 16.3813C25.369 18.0583 23.087 21.8358 23.5114 25.5523C23.8944 28.9047 26.3305 30.9408 27.4026 31.6888C27.9636 29.3071 29.3425 27.2443 31.2245 25.8056C31.8434 25.3326 32.6079 25.0892 33.3866 25.0892H50.3315C51.106 25.0892 51.867 25.3291 52.4833 25.7984C52.509 25.8178 52.5347 25.8375 52.5601 25.8572C53.4201 26.5245 53.8963 27.5732 53.8963 28.6618V33.805C53.8963 35.1394 54.9782 36.2213 56.3127 36.2213H56.5915L59.4945 36.2231C60.6655 36.2238 61.7404 36.625 62.5986 37.292C62.7958 36.048 62.9355 34.5398 62.8821 32.8243C62.8317 31.2033 62.6218 29.7818 62.3724 28.6094Z" stroke="#212121" stroke-width="0.465649" stroke-miterlimit="10" stroke-linecap="round" stroke-linejoin="round"/>
<path d="M42.9013 88.6587C57.0188 88.6587 69.6776 82.4154 78.2686 72.5395C75.8759 69.9429 72.9003 67.8078 69.7354 66.2856C65.2061 64.1068 58.4555 63.5251 51.4393 63.4999C51.1735 63.4989 50.9468 63.6924 50.9094 63.9557C50.7224 65.2623 49.6455 68.9224 43.4427 68.9224C37.4737 68.9224 36.7289 65.7016 36.6788 64.3522C36.6671 64.0385 36.392 63.8029 36.0806 63.8433C31.3546 64.4557 22.4606 66.5234 19.6563 68.0906C18.739 68.6032 17.9002 69.1635 17.1394 69.7654C14.571 71.4803 12.5922 74.0159 11.2969 76.3956C19.6296 84.0122 30.7225 88.6587 42.9013 88.6587Z" fill="white" stroke="#212121" stroke-width="0.465649" stroke-miterlimit="10" stroke-linecap="round" stroke-linejoin="round"/>
<path d="M37.5457 80.5324C36.6496 83.2248 36.0497 85.7683 35.645 88.0969C38.0103 88.4647 40.4329 88.6587 42.9013 88.6587C43.97 88.6587 45.0295 88.6185 46.0802 88.5482C45.3661 84.0339 44.652 79.5196 43.9378 75.0053C42.4453 75.211 40.6904 75.1389 39.1979 75.3449C39.1979 75.3449 38.1389 78.7509 37.5457 80.5324Z" fill="#212121"/>
<path d="M37.5457 80.5324C36.6496 83.2248 36.0497 85.7683 35.645 88.0969C38.0103 88.4647 40.4329 88.6587 42.9013 88.6587C43.97 88.6587 45.0295 88.6185 46.0802 88.5482C45.3661 84.0339 44.652 79.5196 43.9378 75.0053C42.4453 75.211 40.6904 75.1389 39.1979 75.3449C39.1979 75.3449 38.1389 78.7509 37.5457 80.5324Z" stroke="#212121" stroke-width="0.465649" stroke-miterlimit="10" stroke-linecap="round" stroke-linejoin="round"/>
<path d="M36.4033 70.5751C36.4033 70.5751 37.7774 75.8709 39.2134 76.4267C40.6491 76.9824 42.8837 76.7837 43.8761 76.3342C44.8682 75.8843 46.8799 71.385 46.9484 70.5287C45.9369 69.9989 44.2837 69.1284 42.0339 68.8804C40.226 68.6809 36.4033 70.5751 36.4033 70.5751Z" fill="#212121"/>
<path d="M36.4033 70.5751C36.4033 70.5751 37.7774 75.8709 39.2134 76.4267C40.6491 76.9824 42.8837 76.7837 43.8761 76.3342C44.8682 75.8843 46.8799 71.385 46.9484 70.5287C45.9369 69.9989 44.2837 69.1284 42.0339 68.8804C40.226 68.6809 36.4033 70.5751 36.4033 70.5751Z" stroke="#212121" stroke-width="0.465649" stroke-miterlimit="10" stroke-linecap="round" stroke-linejoin="round"/>
<path d="M37.5711 60.8014V64.2291C37.5711 64.2291 37.0829 68.8636 42.1158 68.8636C42.1158 68.8636 36.8443 69.8073 33.9147 73.7487C33.6946 74.0449 33.2243 73.9147 33.1747 73.5487C32.7927 70.7242 32.2848 63.0542 37.5711 60.8014Z" fill="white"/>
<path d="M37.5711 60.8014V64.2291C37.5711 64.2291 37.0829 68.8636 42.1158 68.8636C42.1158 68.8636 36.8443 69.8073 33.9147 73.7487C33.6946 74.0449 33.2243 73.9147 33.1747 73.5487C32.7927 70.7242 32.2848 63.0542 37.5711 60.8014Z" stroke="#212121" stroke-width="0.465649" stroke-miterlimit="10" stroke-linecap="round" stroke-linejoin="round"/>
<path d="M50.4382 60.7998V64.2275C50.4382 64.2275 47.3968 68.862 42.1162 68.862C42.1162 68.862 47.5845 71.9466 50.717 75.5358C51.0663 75.9363 51.7168 75.8482 51.9567 75.3737C54.8638 69.6234 55.426 62.9254 50.4382 60.7998Z" fill="white"/>
<path d="M50.4382 60.7998V64.2275C50.4382 64.2275 47.3968 68.862 42.1162 68.862C42.1162 68.862 47.5845 71.9466 50.717 75.5358C51.0663 75.9363 51.7168 75.8482 51.9567 75.3737C54.8638 69.6234 55.426 62.9254 50.4382 60.7998Z" stroke="#212121" stroke-width="0.465649" stroke-miterlimit="10" stroke-linecap="round" stroke-linejoin="round"/>
<path d="M22.5859 68.5823C22.8632 69.6664 23.1088 70.8747 23.2806 72.1952C23.4783 73.7139 23.5459 75.1332 23.5329 76.4258" stroke="#212121" stroke-width="0.465649" stroke-miterlimit="10" stroke-linecap="round" stroke-linejoin="round"/>
<path d="M65.6815 68.5839C65.1779 69.59 64.6672 70.8085 64.2613 72.2277C63.5237 74.8054 63.4033 77.0926 63.4584 78.7739" stroke="#212121" stroke-width="0.465649" stroke-miterlimit="10" stroke-linecap="round" stroke-linejoin="round"/>
</g>
</svg>
