<svg width="88" height="88" viewBox="0 0 88 88" fill="none" xmlns="http://www.w3.org/2000/svg">
<circle cx="44" cy="44" r="44" fill="#A6ADFD"/>
<path d="M43.9097 22.0638C44.1743 21.5203 44.5587 20.9603 44.9467 20.509C46.3762 18.8642 48.3687 17.8914 50.4811 17.8074C54.89 17.6077 58.4878 20.9273 58.6139 25.6419C59.9096 25.3883 61.3287 25.5216 62.5744 25.967C64.5001 26.6444 66.0934 28.1008 67.0047 30.017C67.8209 31.7399 67.9586 33.7341 67.3876 35.5639C69.1286 36.3201 70.5408 37.7346 71.3477 39.5314C72.134 41.2983 72.2132 43.3254 71.5672 45.1548C70.7533 47.468 69.2062 48.8534 67.135 49.8431C67.67 51.1237 67.8523 52.5376 67.6615 53.9226C67.3693 55.9319 66.3324 57.7359 64.7794 58.9358C62.9216 60.3994 60.8488 60.8188 58.5883 60.4714C58.0188 64.5753 55.4091 66.7728 51.6751 67.4502C51.4253 68.1714 51.3186 68.4181 50.8756 69.0215C50.1587 69.8456 49.5954 70.1044 48.598 70.3979C48.4835 70.8433 48.3815 71.1958 48.1767 71.6083C47.6115 72.743 46.6346 73.587 45.4696 73.9464C44.2453 74.3345 42.9247 74.1857 41.8055 73.5331C40.561 72.8031 39.9845 71.8217 39.5981 70.4254C37.8644 70.2639 36.5182 69.2136 36.0613 67.4099C32.4123 66.9289 29.763 64.3367 29.237 60.4699C25.3909 61.0071 21.7842 59.1852 20.428 55.1418C19.8891 53.5343 19.9652 51.3747 20.7034 49.8369C18.7715 48.9748 17.2984 47.6681 16.426 45.611C15.6753 43.8491 15.6202 41.8437 16.2731 40.0388C17.0401 37.9152 18.5053 36.4901 20.4353 35.5696C20.0726 34.5816 20.0125 33.2369 20.165 32.1953C20.4749 30.1622 21.539 28.3434 23.1222 27.1413C24.9172 25.7558 27.0245 25.2912 29.2044 25.6483C29.3076 21.3889 32.0786 18.4897 35.9829 17.848C39.2975 17.5487 42.2547 18.942 43.9097 22.0638ZM31.0021 26.0641C32.898 26.6691 34.1421 27.9403 34.4245 30.0685C35.0883 30.0758 36.486 30.1306 37.0016 30.6808C37.5742 31.35 37.0358 32.3114 36.1966 32.0922C35.0476 31.7685 34.191 31.5305 33.1521 32.2732C32.4604 32.7677 31.2865 35.0018 30.5459 33.5091C30.0024 32.4132 32.015 30.9228 32.7405 30.5364C32.6175 29.6483 32.3653 28.7596 31.6046 28.2594C30.3566 27.4389 28.1624 27.1012 26.7495 27.3739C25.1574 27.6706 23.7429 28.6244 22.8181 30.0247C21.9825 31.2949 21.6632 32.8657 21.9316 34.3864C22.0201 34.8804 22.6004 36.1383 22.3304 36.4958C22.0259 36.8995 21.0844 37.1561 20.6565 37.4192C17.1045 39.3289 16.4911 44.2984 19.5264 47.0497C20.9125 48.3063 23.98 49.5791 25.3416 47.7232C25.6997 47.2347 25.9934 46.6243 26.6226 46.5542C27.0525 46.4761 27.3791 46.8771 27.3962 47.3101C27.4427 48.4934 26.0062 49.6308 25.0736 50.0451C24.2946 50.3913 23.2118 50.503 22.3882 50.2789C22.2051 50.7643 22.076 51.11 21.9437 51.6101C21.4052 55.2929 23.5319 58.2755 27.0168 58.8068C27.4854 58.8831 27.9618 58.8924 28.4328 58.8347C29.0023 58.7646 30.3764 58.2096 30.7814 58.7394C31.0308 59.0659 30.9598 60.2081 31.0362 60.6775C31.4758 63.3801 33.4896 65.1632 35.9755 65.6512C35.9697 64.954 35.9014 61.8034 36.0081 61.2778C36.0721 60.9478 36.2211 60.6426 36.4387 60.3963C36.6645 60.1457 36.9578 60.0257 37.2631 59.9273C35.844 56.7526 35.0871 56.9408 33.2142 54.6449C30.2231 51.0363 29.3033 46.0057 30.8066 41.4797C32.5799 36.2174 37.776 32.0599 43.0846 31.881L43.0877 27.8656C43.0935 25.3499 43.2626 23.3827 41.404 21.4244C40.2301 20.2046 38.6484 19.5231 37.0016 19.5279C36.7906 19.5285 36.5795 19.54 36.3697 19.5622C33.1812 19.9375 30.7717 22.606 31.0021 26.0641ZM44.9731 54.4633L44.9727 59.9037C46.3634 59.9029 47.8081 59.8812 49.1946 59.9044C49.8472 58.2247 50.6816 56.7998 51.8932 55.4954C52.5965 54.7375 53.2824 54.1104 53.9268 53.2725C56.538 49.9019 57.1703 45.2822 55.5697 41.2684C53.566 36.2647 48.2073 32.9803 43.1051 33.5807C36.5656 34.2905 31.1313 39.897 31.868 47.0899C32.1396 49.6514 33.1893 52.0511 34.8602 53.9296C35.4056 54.5454 36.0007 55.0655 36.5555 55.6542C37.684 56.8599 38.5511 58.3099 39.0977 59.9044C40.4574 59.9037 41.8924 59.8785 43.2463 59.9048V54.4621C40.9237 54.2057 38.8246 53.0769 37.3527 51.1423C36.045 49.4424 35.4448 47.2554 35.6888 45.0802C36.1567 40.8851 39.6912 37.7866 43.6059 37.5961C44.1297 37.5705 44.6161 37.5926 45.1387 37.6282C47.5967 38.048 49.6074 39.0761 51.106 41.2553C52.3304 43.0178 52.8277 45.2283 52.4852 47.3841C52.1325 49.5985 50.8915 51.5573 49.159 52.8397C47.9203 53.755 46.4779 54.3145 44.9731 54.4633ZM65.643 50.7271C65.579 50.5875 65.4847 50.3641 65.4168 50.235C63.4472 50.7443 61.1747 49.8055 60.3445 47.7318C60.0209 46.923 60.9206 46.1144 61.6573 46.7921C62.6915 47.9974 62.8327 48.7899 64.6914 48.63C67.9249 48.3517 70.6672 45.4835 70.2498 41.914C70.0609 40.3741 69.2962 38.9781 68.127 38.0372C67.8279 37.7915 67.5074 37.5764 67.1695 37.3947C66.8611 37.2313 66.4705 37.0713 66.152 36.9225C64.9238 36.3492 65.5918 35.7952 65.8222 34.9197C66.4142 32.6518 65.6783 30.2291 63.9485 28.7481C62.6543 27.6312 60.9916 27.1068 59.3296 27.2916C57.2634 27.5076 55.4898 28.0807 55.1825 30.5281C55.979 30.961 57.9358 32.3898 57.3655 33.5236C57.2565 33.7403 57.0652 33.8976 56.8398 33.9561C55.8944 34.1922 55.3722 32.2336 54.1882 31.9384C53.2118 31.695 52.8611 31.7614 51.8548 32.0431C50.9838 32.2875 50.3371 31.5025 50.8488 30.7481C51.1677 30.2775 52.5034 30.0726 53.0977 30.0648C53.2355 30.0636 53.3732 30.0657 53.5105 30.0713C53.7952 27.9493 54.9688 26.7103 56.8631 26.0617C56.9962 24.5109 56.5287 22.9693 55.5678 21.7885C54.4924 20.4427 52.993 19.6805 51.3411 19.5364C51.1906 19.5237 51.0401 19.5137 50.8892 19.5064C49.0352 19.6224 47.5098 20.1599 46.2312 21.6645C44.6127 23.5685 44.7752 25.4689 44.7826 27.8327C44.7865 29.1319 44.8012 30.5411 44.781 31.8409C48.8195 32.1517 52.2842 33.6757 54.9855 36.9561C57.2557 39.6767 58.3877 43.2512 58.1247 46.8671C57.9039 49.9152 56.7052 52.7924 54.7263 55.0229C52.9092 57.0992 52.271 57.253 50.9885 60.112C51.9323 60.8653 51.8078 61.5516 51.8105 62.7077C51.8129 63.6872 51.7985 64.6725 51.7904 65.6524C53.4659 65.3317 54.9001 64.5443 55.896 63.0427C56.4817 62.1728 56.8204 61.1446 56.8724 60.0783C56.8999 59.5837 56.8169 58.605 57.4403 58.5365C58.0952 58.4645 58.7551 58.7379 59.4053 58.8115C61.4369 59.0729 63.559 58.1318 64.8264 56.4389C65.7345 55.239 66.1539 53.7071 65.9929 52.1804C65.9386 51.6815 65.8211 51.1926 65.643 50.7271ZM44.9513 52.9135C48.5526 52.4192 51.0901 48.9313 50.6153 45.1282C50.1408 41.325 46.8344 38.6508 43.2355 39.1592C39.6455 39.6662 37.1223 43.1479 37.5956 46.9411C38.0689 50.7343 41.3602 53.4064 44.9513 52.9135ZM46.8332 70.4436L41.4253 70.4386C41.5169 70.956 41.9498 71.5242 42.3494 71.822C43.0202 72.3186 43.8515 72.5099 44.6569 72.3538C45.1888 72.2465 45.5751 72.0517 46.0015 71.6977C46.4422 71.2566 46.5714 71.013 46.8332 70.4436ZM50.0644 61.626C46.0023 61.6314 41.733 61.6945 37.6801 61.6252C37.6941 63.3975 37.6029 65.2317 37.7569 66.9754C37.8167 67.6504 38.657 68.5819 39.2734 68.6311C42.0941 68.8553 45.0091 68.6745 47.8434 68.7178C48.463 68.7271 49.0201 68.4483 49.4616 68.035C50.1738 67.104 50.0613 66.4169 50.0698 65.2906C50.0792 64.0733 50.0369 62.8417 50.0644 61.626Z" fill="white" stroke="white" stroke-width="0.2"/>
<path d="M43.6247 40.6791C44.2761 40.5594 45.0027 40.7229 45.3829 41.3338C45.8825 42.1367 45.5846 43.1376 45.4038 43.9984C46.478 43.9861 49.3278 43.6746 48.6815 46.1936C48.5671 46.6397 47.4479 48.1813 47.1437 48.604C46.4776 49.5286 45.7398 51.0211 44.7001 51.4337C44.0173 51.499 43.3217 51.37 42.9264 50.7036C42.5144 50.0085 42.7068 49.2954 42.8663 48.5561C42.2006 48.5577 41.0926 48.6495 40.4661 48.4483C39.7856 48.2162 39.1316 47.1295 39.523 46.4064C40.5018 44.5984 41.7114 42.8276 42.8663 41.1367C43.0021 40.9381 43.4207 40.7626 43.6247 40.6791ZM41.1908 46.8522C41.8809 46.8473 44.0553 46.6399 44.4708 47.0756C44.6919 47.3079 44.7071 47.751 44.6853 48.0559C44.6547 48.4901 44.5337 48.9109 44.4724 49.3398C44.7812 49.1213 46.6064 46.2901 47.025 45.725C46.158 45.7339 44.7164 45.8359 43.9145 45.5503C42.9132 45.1937 44.0705 43.6378 43.7904 42.8103L41.1908 46.8522Z" fill="white"/>
</svg>
